Courier Primal.ufo
<glyph name="exclam" format="2">
  <advance width="1228"/>
  <unicode hex="0021"/>
  <outline>
    <contour>
      <point x="679" y="1209" type="line" smooth="yes"/>
      <point x="701.5" y="1209.0" name="inserted"/>
      <point x="722.0" y="1184.0"/>
      <point x="720" y="1159" type="qcurve" smooth="yes"/>
      <point x="671" y="512" type="line" smooth="yes"/>
      <point x="669.5" y="488.0" name="inserted"/>
      <point x="641.0" y="464.0"/>
      <point x="614" y="464" type="qcurve" smooth="yes"/>
      <point x="588" y="464"/>
      <point x="558" y="489"/>
      <point x="556" y="512" type="qcurve" smooth="yes"/>
      <point x="508" y="1159" type="line" smooth="yes"/>
      <point x="506.0" y="1184.0" name="inserted"/>
      <point x="526.5" y="1209.0"/>
      <point x="549" y="1209" type="qcurve" smooth="yes"/>
    </contour>
    <contour>
      <point x="460" y="132" type="qcurve" smooth="yes"/>
      <point x="460" y="164"/>
      <point x="484" y="220"/>
      <point x="505.0" y="241.0" type="qcurve" smooth="yes" name="inserted"/>
      <point x="526" y="262"/>
      <point x="582" y="286"/>
      <point x="614" y="286" type="qcurve" smooth="yes"/>
      <point x="646" y="286"/>
      <point x="702" y="262"/>
      <point x="723.0" y="241.0" type="qcurve" smooth="yes" name="inserted"/>
      <point x="744" y="220"/>
      <point x="768" y="164"/>
      <point x="768" y="132" type="qcurve" smooth="yes"/>
      <point x="768" y="100"/>
      <point x="744" y="44"/>
      <point x="723.0" y="23.0" type="qcurve" smooth="yes" name="inserted"/>
      <point x="702" y="2"/>
      <point x="646" y="-22"/>
      <point x="614" y="-22" type="qcurve" smooth="yes"/>
      <point x="582" y="-22"/>
      <point x="526" y="2"/>
      <point x="505.0" y="23.0" type="qcurve" smooth="yes" name="inserted"/>
      <point x="484" y="44"/>
      <point x="460" y="100"/>
    </contour>
  </outline>
</glyph>
<glyph name="dollar" format="2">
  <advance width="1228"/>
  <unicode hex="0024"/>
  <outline>
    <contour>
      <point x="678" y="688" type="line"/>
      <point x="731" y="682"/>
      <point x="835" y="663"/>
      <point x="881" y="646" type="qcurve" smooth="yes"/>
      <point x="918" y="632"/>
      <point x="980" y="593"/>
      <point x="1002.5" y="565.5" type="qcurve" smooth="yes" name="inserted"/>
      <point x="1025" y="538"/>
      <point x="1050" y="465"/>
      <point x="1050" y="417" type="qcurve" smooth="yes"/>
      <point x="1050" y="351"/>
      <point x="1001" y="243"/>
      <point x="953.5" y="204.0" type="qcurve" smooth="yes" name="inserted"/>
      <point x="906" y="165"/>
      <point x="768" y="120"/>
      <point x="678" y="118" type="qcurve"/>
      <point x="678" y="-60" type="line" smooth="yes"/>
      <point x="678" y="-95"/>
      <point x="645" y="-125"/>
      <point x="608" y="-125" type="qcurve" smooth="yes"/>
      <point x="571" y="-125"/>
      <point x="538" y="-95"/>
      <point x="538" y="-60" type="qcurve" smooth="yes"/>
      <point x="538" y="129" type="line"/>
      <point x="474" y="142"/>
      <point x="371" y="197"/>
      <point x="329" y="239" type="qcurve"/>
      <point x="329" y="183" type="line" smooth="yes"/>
      <point x="329" y="148"/>
      <point x="296" y="118"/>
      <point x="254" y="118" type="qcurve" smooth="yes"/>
      <point x="212" y="118"/>
      <point x="179" y="148"/>
      <point x="179" y="183" type="qcurve" smooth="yes"/>
      <point x="179" y="423" type="line" smooth="yes"/>
      <point x="179" y="458"/>
      <point x="212" y="488"/>
      <point x="254" y="488" type="qcurve" smooth="yes"/>
      <point x="276" y="488"/>
      <point x="300" y="468"/>
      <point x="308" y="447" type="qcurve" smooth="yes"/>
      <point x="337" y="372"/>
      <point x="449" y="286"/>
      <point x="538" y="271" type="qcurve"/>
      <point x="538" y="550" type="line"/>
      <point x="484" y="557"/>
      <point x="383" y="577"/>
      <point x="338" y="595" type="qcurve" smooth="yes"/>
      <point x="304" y="608"/>
      <point x="248" y="646"/>
      <point x="227.5" y="672.0" type="qcurve" smooth="yes" name="inserted"/>
      <point x="207" y="698"/>
      <point x="184" y="766"/>
      <point x="184" y="810" type="qcurve" smooth="yes"/>
      <point x="184" y="877"/>
      <point x="238" y="980"/>
      <point x="285.5" y="1015.0" type="qcurve" smooth="yes" name="inserted"/>
      <point x="333" y="1050"/>
      <point x="462" y="1086"/>
      <point x="538" y="1086" type="qcurve"/>
      <point x="538" y="1247" type="line" smooth="yes"/>
      <point x="538" y="1282"/>
      <point x="571" y="1312"/>
      <point x="608" y="1312" type="qcurve" smooth="yes"/>
      <point x="645" y="1312"/>
      <point x="678" y="1282"/>
      <point x="678" y="1247" type="qcurve" smooth="yes"/>
      <point x="678" y="1073" type="line"/>
      <point x="731" y="1059"/>
      <point x="819" y="1008"/>
      <point x="854" y="976" type="qcurve"/>
      <point x="854" y="1021" type="line" smooth="yes"/>
      <point x="854" y="1056"/>
      <point x="887" y="1086"/>
      <point x="929" y="1086" type="qcurve" smooth="yes"/>
      <point x="971" y="1086"/>
      <point x="1004" y="1056"/>
      <point x="1004" y="1021" type="qcurve" smooth="yes"/>
      <point x="1004" y="831" type="line" smooth="yes"/>
      <point x="1004" y="796"/>
      <point x="971" y="766"/>
      <point x="929" y="766" type="qcurve" smooth="yes"/>
      <point x="912.0" y="766.0" name="inserted"/>
      <point x="888.0" y="779.0"/>
      <point x="881" y="792" type="qcurve" smooth="yes"/>
      <point x="849" y="853"/>
      <point x="747" y="922"/>
      <point x="678" y="935" type="qcurve"/>
    </contour>
    <contour>
      <point x="678" y="263" type="line"/>
      <point x="785" y="268"/>
      <point x="892" y="352"/>
      <point x="892" y="417" type="qcurve" smooth="yes"/>
      <point x="892" y="453"/>
      <point x="846" y="496"/>
      <point x="807" y="509" type="qcurve" smooth="yes"/>
      <point x="780" y="518"/>
      <point x="715" y="529"/>
      <point x="678" y="534" type="qcurve"/>
    </contour>
    <contour>
      <point x="538" y="941" type="line"/>
      <point x="445" y="939"/>
      <point x="342" y="871"/>
      <point x="342" y="810" type="qcurve" smooth="yes"/>
      <point x="342" y="777"/>
      <point x="385" y="737"/>
      <point x="423" y="725" type="qcurve" smooth="yes"/>
      <point x="447" y="717"/>
      <point x="505" y="707"/>
      <point x="538" y="702" type="qcurve"/>
    </contour>
  </outline>
</glyph>
<glyph name="parenleft" format="2">
  <advance width="1228"/>
  <unicode hex="0028"/>
  <outline>
    <contour>
      <point x="771" y="-397" type="qcurve" smooth="yes"/>
      <point x="687" y="-347"/>
      <point x="518" y="-186"/>
      <point x="450.0" y="-78.0" type="qcurve" smooth="yes" name="inserted"/>
      <point x="382" y="30"/>
      <point x="297" y="298"/>
      <point x="297" y="457" type="qcurve" smooth="yes"/>
      <point x="297" y="616"/>
      <point x="382" y="886"/>
      <point x="450.0" y="994.5" type="qcurve" smooth="yes" name="inserted"/>
      <point x="518" y="1103"/>
      <point x="687" y="1265"/>
      <point x="771" y="1315" type="qcurve" smooth="yes"/>
      <point x="793" y="1328"/>
      <point x="834" y="1304"/>
      <point x="848" y="1281" type="qcurve" smooth="yes"/>
      <point x="862" y="1258"/>
      <point x="868" y="1209"/>
      <point x="852" y="1198" type="qcurve" smooth="yes"/>
      <point x="778" y="1149"/>
      <point x="632" y="1010"/>
      <point x="574.0" y="918.0" type="qcurve" smooth="yes" name="inserted"/>
      <point x="516" y="826"/>
      <point x="445" y="596"/>
      <point x="445" y="457" type="qcurve" smooth="yes"/>
      <point x="445" y="318"/>
      <point x="516" y="89"/>
      <point x="574.0" y="-2.0" type="qcurve" smooth="yes" name="inserted"/>
      <point x="632" y="-93"/>
      <point x="778" y="-231"/>
      <point x="852" y="-280" type="qcurve" smooth="yes"/>
      <point x="868" y="-291"/>
      <point x="862" y="-340"/>
      <point x="848" y="-363" type="qcurve" smooth="yes"/>
      <point x="834" y="-386"/>
      <point x="793" y="-410"/>
    </contour>
  </outline>
</glyph>
<glyph name="slash" format="2">
  <advance width="1228"/>
  <unicode hex="002F"/>
  <outline>
    <contour>
      <point x="883" y="1305" type="line" smooth="yes"/>
      <point x="890" y="1321"/>
      <point x="927" y="1335"/>
      <point x="948" y="1335" type="qcurve" smooth="yes"/>
      <point x="966" y="1335"/>
      <point x="999" y="1326"/>
      <point x="1011.0" y="1317.5" type="qcurve" smooth="yes" name="inserted"/>
      <point x="1023" y="1309"/>
      <point x="1033" y="1286"/>
      <point x="1027" y="1271" type="qcurve" smooth="yes"/>
      <point x="345" y="-267" type="line" smooth="yes"/>
      <point x="338" y="-283"/>
      <point x="301" y="-297"/>
      <point x="280" y="-297" type="qcurve" smooth="yes"/>
      <point x="262" y="-297"/>
      <point x="228" y="-288"/>
      <point x="216.0" y="-279.5" type="qcurve" smooth="yes" name="inserted"/>
      <point x="204" y="-271"/>
      <point x="195" y="-248"/>
      <point x="201" y="-233" type="qcurve" smooth="yes"/>
    </contour>
  </outline>
</glyph>
<glyph name="three" format="2">
  <advance width="1228"/>
  <unicode hex="0033"/>
  <outline>
    <contour>
      <point x="221" y="104" type="qcurve" smooth="yes"/>
      <point x="197" y="121"/>
      <point x="187" y="168"/>
      <point x="208" y="203" type="qcurve" smooth="yes"/>
      <point x="230" y="238"/>
      <point x="278" y="249"/>
      <point x="300" y="232" type="qcurve" smooth="yes"/>
      <point x="364" y="184"/>
      <point x="518" y="126"/>
      <point x="598" y="126" type="qcurve" smooth="yes"/>
      <point x="725" y="126"/>
      <point x="852" y="246"/>
      <point x="852" y="345" type="qcurve" smooth="yes"/>
      <point x="852" y="450"/>
      <point x="720" y="555"/>
      <point x="603" y="555" type="qcurve" smooth="yes"/>
      <point x="530" y="555" type="line" smooth="yes"/>
      <point x="496" y="555"/>
      <point x="467" y="585"/>
      <point x="467" y="623" type="qcurve" smooth="yes"/>
      <point x="467" y="661"/>
      <point x="496" y="691"/>
      <point x="530" y="691" type="qcurve" smooth="yes"/>
      <point x="585" y="691" type="line" smooth="yes"/>
      <point x="700" y="691"/>
      <point x="817" y="787"/>
      <point x="817" y="879" type="qcurve" smooth="yes"/>
      <point x="817" y="964"/>
      <point x="700" y="1061"/>
      <point x="591" y="1061" type="qcurve" smooth="yes"/>
      <point x="533.0" y="1061.0" name="inserted"/>
      <point x="434.5" y="1041.5"/>
      <point x="394" y="1022" type="qcurve"/>
      <point x="394" y="955" type="line" smooth="yes"/>
      <point x="394" y="920"/>
      <point x="361" y="890"/>
      <point x="319" y="890" type="qcurve" smooth="yes"/>
      <point x="277" y="890"/>
      <point x="244" y="920"/>
      <point x="244" y="955" type="qcurve" smooth="yes"/>
      <point x="244" y="1064" type="line" smooth="yes"/>
      <point x="244" y="1086"/>
      <point x="257" y="1112"/>
      <point x="271" y="1121" type="qcurve" smooth="yes"/>
      <point x="340" y="1163"/>
      <point x="497" y="1209"/>
      <point x="590" y="1209" type="qcurve" smooth="yes"/>
      <point x="677" y="1209"/>
      <point x="817" y="1162"/>
      <point x="867.0" y="1119.0" type="qcurve" smooth="yes" name="inserted"/>
      <point x="917" y="1076"/>
      <point x="971" y="954"/>
      <point x="971" y="879" type="qcurve" smooth="yes"/>
      <point x="971" y="789"/>
      <point x="888" y="667"/>
      <point x="818" y="631" type="qcurve"/>
      <point x="907" y="594"/>
      <point x="1010" y="450"/>
      <point x="1010" y="345" type="qcurve" smooth="yes"/>
      <point x="1010" y="264"/>
      <point x="955" y="129"/>
      <point x="902.5" y="80.5" type="qcurve" smooth="yes" name="inserted"/>
      <point x="850" y="32"/>
      <point x="696" y="-22"/>
      <point x="598" y="-22" type="qcurve" smooth="yes"/>
      <point x="548" y="-22"/>
      <point x="447" y="-4"/>
      <point x="398.5" y="12.5" type="qcurve" smooth="yes" name="inserted"/>
      <point x="350" y="29"/>
      <point x="260" y="75"/>
    </contour>
  </outline>
</glyph>
<glyph name="seven" format="2">
  <advance width="1228"/>
  <unicode hex="0037"/>
  <outline>
    <contour>
      <point x="597" y="24" type="line" smooth="yes"/>
      <point x="586" y="-4"/>
      <point x="534" y="-26"/>
      <point x="499" y="-20" type="qcurve" smooth="yes"/>
      <point x="465" y="-14"/>
      <point x="433" y="25"/>
      <point x="446" y="56" type="qcurve" smooth="yes"/>
      <point x="853" y="1051" type="line"/>
      <point x="379" y="1051" type="line"/>
      <point x="379" y="905" type="line" smooth="yes"/>
      <point x="379" y="870"/>
      <point x="346" y="840"/>
      <point x="304" y="840" type="qcurve" smooth="yes"/>
      <point x="262" y="840"/>
      <point x="229" y="870"/>
      <point x="229" y="905" type="qcurve" smooth="yes"/>
      <point x="229" y="1119" type="line" smooth="yes"/>
      <point x="229" y="1157"/>
      <point x="258" y="1187"/>
      <point x="292" y="1187" type="qcurve" smooth="yes"/>
      <point x="966" y="1187" type="line" smooth="yes"/>
      <point x="1000" y="1187"/>
      <point x="1029" y="1157"/>
      <point x="1029" y="1119" type="qcurve" smooth="yes"/>
      <point x="1029" y="1106"/>
      <point x="1025" y="1085"/>
      <point x="1023" y="1079" type="qcurve"/>
    </contour>
  </outline>
</glyph>
<glyph name="semicolon" format="2">
  <advance width="1228"/>
  <unicode hex="003B"/>
  <outline>
    <contour>
      <point x="445" y="777" type="qcurve" smooth="yes"/>
      <point x="445" y="812"/>
      <point x="472" y="873"/>
      <point x="495.0" y="896.0" type="qcurve" smooth="yes" name="inserted"/>
      <point x="518" y="919"/>
      <point x="579" y="946"/>
      <point x="614" y="946" type="qcurve" smooth="yes"/>
      <point x="649" y="946"/>
      <point x="710" y="919"/>
      <point x="733.0" y="896.0" type="qcurve" smooth="yes" name="inserted"/>
      <point x="756" y="873"/>
      <point x="783" y="812"/>
      <point x="783" y="777" type="qcurve" smooth="yes"/>
      <point x="783" y="742"/>
      <point x="756" y="681"/>
      <point x="733.0" y="658.0" type="qcurve" smooth="yes" name="inserted"/>
      <point x="710" y="635"/>
      <point x="649" y="608"/>
      <point x="614" y="608" type="qcurve" smooth="yes"/>
      <point x="579" y="608"/>
      <point x="518" y="635"/>
      <point x="495.0" y="658.0" type="qcurve" smooth="yes" name="inserted"/>
      <point x="472" y="681"/>
      <point x="445" y="742"/>
    </contour>
    <contour>
      <point x="500" y="-253" type="line" smooth="yes"/>
      <point x="489" y="-274"/>
      <point x="454" y="-294"/>
      <point x="434" y="-294" type="qcurve" smooth="yes"/>
      <point x="420" y="-294"/>
      <point x="396" y="-285"/>
      <point x="387.0" y="-276.5" type="qcurve" smooth="yes" name="inserted"/>
      <point x="378" y="-268"/>
      <point x="371" y="-244"/>
      <point x="374" y="-228" type="qcurve" smooth="yes"/>
      <point x="478" y="254" type="line" smooth="yes"/>
      <point x="482.5" y="274.0" name="inserted"/>
      <point x="508.5" y="294.0"/>
      <point x="530" y="294" type="qcurve" smooth="yes"/>
      <point x="724" y="294" type="line" smooth="yes"/>
      <point x="749" y="294"/>
      <point x="766" y="257"/>
      <point x="752" y="231" type="qcurve" smooth="yes"/>
    </contour>
  </outline>
</glyph>
<glyph name="equal" format="2">
  <advance width="1228"/>
  <unicode hex="003D"/>
  <outline>
    <contour>
      <point x="995" y="850" type="line" smooth="yes"/>
      <point x="1029" y="850"/>
      <point x="1058" y="820"/>
      <point x="1058" y="782" type="qcurve" smooth="yes"/>
      <point x="1058" y="744"/>
      <point x="1029" y="714"/>
      <point x="995" y="714" type="qcurve" smooth="yes"/>
      <point x="233" y="714" type="line" smooth="yes"/>
      <point x="199" y="714"/>
      <point x="170" y="744"/>
      <point x="170" y="782" type="qcurve" smooth="yes"/>
      <point x="170" y="820"/>
      <point x="199" y="850"/>
      <point x="233" y="850" type="qcurve" smooth="yes"/>
    </contour>
    <contour>
      <point x="995" y="450" type="line" smooth="yes"/>
      <point x="1029" y="450"/>
      <point x="1058" y="420"/>
      <point x="1058" y="382" type="qcurve" smooth="yes"/>
      <point x="1058" y="344"/>
      <point x="1029" y="314"/>
      <point x="995" y="314" type="qcurve" smooth="yes"/>
      <point x="233" y="314" type="line" smooth="yes"/>
      <point x="199" y="314"/>
      <point x="170" y="344"/>
      <point x="170" y="382" type="qcurve" smooth="yes"/>
      <point x="170" y="420"/>
      <point x="199" y="450"/>
      <point x="233" y="450" type="qcurve" smooth="yes"/>
    </contour>
  </outline>
</glyph>
<glyph name="at" format="2">
  <advance width="1228"/>
  <unicode hex="0040"/>
  <outline>
    <contour>
      <point x="50" y="389" type="qcurve" smooth="yes"/>
      <point x="50" y="536"/>
      <point x="142" y="788"/>
      <point x="223.5" y="880.5" type="qcurve" smooth="yes" name="inserted"/>
      <point x="305" y="973"/>
      <point x="528" y="1078"/>
      <point x="660" y="1078" type="qcurve" smooth="yes"/>
      <point x="776" y="1078"/>
      <point x="965" y="997"/>
      <point x="1031.5" y="924.5" type="qcurve" smooth="yes" name="inserted"/>
      <point x="1098" y="852"/>
      <point x="1170" y="651"/>
      <point x="1170" y="531" type="qcurve" smooth="yes"/>
      <point x="1170" y="443"/>
      <point x="1129" y="298"/>
      <point x="1092.5" y="246.0" type="qcurve" smooth="yes" name="inserted"/>
      <point x="1056" y="194"/>
      <point x="952" y="137"/>
      <point x="889" y="137" type="qcurve" smooth="yes"/>
      <point x="823" y="137"/>
      <point x="731" y="203"/>
      <point x="708" y="266" type="qcurve"/>
      <point x="685" y="236"/>
      <point x="639" y="187"/>
      <point x="614.0" y="169.5" type="qcurve" smooth="yes" name="inserted"/>
      <point x="589" y="152"/>
      <point x="533" y="132"/>
      <point x="499" y="132" type="qcurve" smooth="yes"/>
      <point x="462" y="132"/>
      <point x="398" y="162"/>
      <point x="374.0" y="191.0" type="qcurve" smooth="yes" name="inserted"/>
      <point x="350" y="220"/>
      <point x="323" y="303"/>
      <point x="323" y="357" type="qcurve" smooth="yes"/>
      <point x="323" y="402"/>
      <point x="345" y="500"/>
      <point x="365.0" y="547.5" type="qcurve" smooth="yes" name="inserted"/>
      <point x="385" y="595"/>
      <point x="443" y="681"/>
      <point x="478.0" y="713.5" type="qcurve" smooth="yes" name="inserted"/>
      <point x="513" y="746"/>
      <point x="595" y="785"/>
      <point x="640" y="785" type="qcurve" smooth="yes"/>
      <point x="688" y="785"/>
      <point x="749" y="730"/>
      <point x="768" y="685" type="qcurve"/>
      <point x="799" y="748" type="line" smooth="yes"/>
      <point x="804" y="759"/>
      <point x="840" y="759"/>
      <point x="858" y="752" type="qcurve" smooth="yes"/>
      <point x="876" y="745"/>
      <point x="901" y="721"/>
      <point x="897" y="706" type="qcurve" smooth="yes"/>
      <point x="820" y="404" type="line" smooth="yes"/>
      <point x="803" y="339"/>
      <point x="843" y="263"/>
      <point x="888" y="263" type="qcurve" smooth="yes"/>
      <point x="926" y="263"/>
      <point x="986" y="302"/>
      <point x="1006.5" y="337.5" type="qcurve" smooth="yes" name="inserted"/>
      <point x="1027" y="373"/>
      <point x="1049" y="471"/>
      <point x="1049" y="531" type="qcurve" smooth="yes"/>
      <point x="1049" y="629"/>
      <point x="994" y="786"/>
      <point x="943.0" y="841.0" type="qcurve" smooth="yes" name="inserted"/>
      <point x="892" y="896"/>
      <point x="746" y="955"/>
      <point x="655" y="955" type="qcurve" smooth="yes"/>
      <point x="551" y="955"/>
      <point x="375" y="868"/>
      <point x="310.5" y="792.0" type="qcurve" smooth="yes" name="inserted"/>
      <point x="246" y="716"/>
      <point x="173" y="509"/>
      <point x="173" y="389" type="qcurve" smooth="yes"/>
      <point x="173" y="293"/>
      <point x="224" y="138"/>
      <point x="273.0" y="83.5" type="qcurve" smooth="yes" name="inserted"/>
      <point x="322" y="29"/>
      <point x="467" y="-30"/>
      <point x="560" y="-30" type="qcurve" smooth="yes"/>
      <point x="632" y="-30"/>
      <point x="764" y="-9"/>
      <point x="815" y="7" type="qcurve" smooth="yes"/>
      <point x="833.0" y="12.5" name="inserted"/>
      <point x="859.0" y="-9.0"/>
      <point x="867" y="-36" type="qcurve" smooth="yes"/>
      <point x="875" y="-63"/>
      <point x="864" y="-94"/>
      <point x="848" y="-101" type="qcurve" smooth="yes"/>
      <point x="795" y="-124"/>
      <point x="645" y="-153"/>
      <point x="562" y="-153" type="qcurve" smooth="yes"/>
      <point x="442" y="-153"/>
      <point x="252" y="-78"/>
      <point x="186.0" y="-7.5" type="qcurve" smooth="yes" name="inserted"/>
      <point x="120" y="63"/>
      <point x="50" y="263"/>
    </contour>
    <contour>
      <point x="458" y="359" type="qcurve" smooth="yes"/>
      <point x="458" y="310"/>
      <point x="495" y="266"/>
      <point x="524" y="266" type="qcurve" smooth="yes"/>
      <point x="563" y="266"/>
      <point x="631" y="321"/>
      <point x="656.5" y="364.0" type="qcurve" smooth="yes" name="inserted"/>
      <point x="682" y="407"/>
      <point x="712" y="512"/>
      <point x="712" y="561" type="qcurve" smooth="yes"/>
      <point x="712" y="608"/>
      <point x="671" y="658"/>
      <point x="636" y="658" type="qcurve" smooth="yes"/>
      <point x="609" y="658"/>
      <point x="546" y="606"/>
      <point x="519.5" y="564.0" type="qcurve" smooth="yes" name="inserted"/>
      <point x="493" y="522"/>
      <point x="458" y="415"/>
    </contour>
  </outline>
</glyph>
<glyph name="C" format="2">
  <advance width="1228"/>
  <unicode hex="0043"/>
  <outline>
    <contour>
      <point x="1062" y="109" type="qcurve" smooth="yes"/>
      <point x="967" y="43"/>
      <point x="749" y="-22"/>
      <point x="634" y="-22" type="qcurve" smooth="yes"/>
      <point x="516" y="-22"/>
      <point x="325" y="66"/>
      <point x="258.0" y="146.5" type="qcurve" smooth="yes" name="inserted"/>
      <point x="191" y="227"/>
      <point x="118" y="454"/>
      <point x="118" y="593" type="qcurve" smooth="yes"/>
      <point x="118" y="732"/>
      <point x="193" y="959"/>
      <point x="261.5" y="1040.0" type="qcurve" smooth="yes" name="inserted"/>
      <point x="330" y="1121"/>
      <point x="520" y="1209"/>
      <point x="634" y="1209" type="qcurve" smooth="yes"/>
      <point x="731" y="1209"/>
      <point x="875" y="1144"/>
      <point x="924" y="1086" type="qcurve"/>
      <point x="924" y="1144" type="line" smooth="yes"/>
      <point x="924" y="1179"/>
      <point x="957" y="1209"/>
      <point x="999" y="1209" type="qcurve" smooth="yes"/>
      <point x="1041" y="1209"/>
      <point x="1074" y="1179"/>
      <point x="1074" y="1144" type="qcurve" smooth="yes"/>
      <point x="1074" y="814" type="line" smooth="yes"/>
      <point x="1074" y="779"/>
      <point x="1041" y="749"/>
      <point x="999" y="749" type="qcurve" smooth="yes"/>
      <point x="957" y="749"/>
      <point x="924" y="779"/>
      <point x="924" y="814" type="qcurve" smooth="yes"/>
      <point x="924" y="863"/>
      <point x="891" y="953"/>
      <point x="856.5" y="987.0" type="qcurve" smooth="yes" name="inserted"/>
      <point x="822" y="1021"/>
      <point x="716" y="1061"/>
      <point x="644" y="1061" type="qcurve" smooth="yes"/>
      <point x="563" y="1061"/>
      <point x="427" y="996"/>
      <point x="378.5" y="935.0" type="qcurve" smooth="yes" name="inserted"/>
      <point x="330" y="874"/>
      <point x="276" y="701"/>
      <point x="276" y="593" type="qcurve" smooth="yes"/>
      <point x="276" y="485"/>
      <point x="327" y="312"/>
      <point x="373.5" y="251.5" type="qcurve" smooth="yes" name="inserted"/>
      <point x="420" y="191"/>
      <point x="553" y="126"/>
      <point x="634" y="126" type="qcurve" smooth="yes"/>
      <point x="734" y="126"/>
      <point x="913" y="183"/>
      <point x="985" y="239" type="qcurve" smooth="yes"/>
      <point x="1005" y="255"/>
      <point x="1053" y="251"/>
      <point x="1075" y="214" type="qcurve" smooth="yes"/>
      <point x="1096" y="179"/>
      <point x="1088" y="128"/>
    </contour>
  </outline>
</glyph>
<glyph name="H" format="2">
  <advance width="1228"/>
  <unicode hex="0048"/>
  <outline>
    <contour>
      <point x="215" y="1051" type="line"/>
      <point x="143" y="1051" type="line" smooth="yes"/>
      <point x="109" y="1051"/>
      <point x="80" y="1081"/>
      <point x="80" y="1119" type="qcurve" smooth="yes"/>
      <point x="80" y="1157"/>
      <point x="109" y="1187"/>
      <point x="143" y="1187" type="qcurve" smooth="yes"/>
      <point x="457" y="1187" type="line" smooth="yes"/>
      <point x="491" y="1187"/>
      <point x="520" y="1157"/>
      <point x="520" y="1119" type="qcurve" smooth="yes"/>
      <point x="520" y="1081"/>
      <point x="491" y="1051"/>
      <point x="457" y="1051" type="qcurve" smooth="yes"/>
      <point x="365" y="1051" type="line"/>
      <point x="365" y="680" type="line"/>
      <point x="863" y="680" type="line"/>
      <point x="863" y="1051" type="line"/>
      <point x="771" y="1051" type="line" smooth="yes"/>
      <point x="737" y="1051"/>
      <point x="708" y="1081"/>
      <point x="708" y="1119" type="qcurve" smooth="yes"/>
      <point x="708" y="1157"/>
      <point x="737" y="1187"/>
      <point x="771" y="1187" type="qcurve" smooth="yes"/>
      <point x="1085" y="1187" type="line" smooth="yes"/>
      <point x="1119" y="1187"/>
      <point x="1148" y="1157"/>
      <point x="1148" y="1119" type="qcurve" smooth="yes"/>
      <point x="1148" y="1081"/>
      <point x="1119" y="1051"/>
      <point x="1085" y="1051" type="qcurve" smooth="yes"/>
      <point x="1013" y="1051" type="line"/>
      <point x="1013" y="136" type="line"/>
      <point x="1085" y="136" type="line" smooth="yes"/>
      <point x="1119" y="136"/>
      <point x="1148" y="106"/>
      <point x="1148" y="68" type="qcurve" smooth="yes"/>
      <point x="1148" y="30"/>
      <point x="1119" y="0"/>
      <point x="1085" y="0" type="qcurve" smooth="yes"/>
      <point x="771" y="0" type="line" smooth="yes"/>
      <point x="737" y="0"/>
      <point x="708" y="30"/>
      <point x="708" y="68" type="qcurve" smooth="yes"/>
      <point x="708" y="106"/>
      <point x="737" y="136"/>
      <point x="771" y="136" type="qcurve" smooth="yes"/>
      <point x="863" y="136" type="line"/>
      <point x="863" y="544" type="line"/>
      <point x="365" y="544" type="line"/>
      <point x="365" y="136" type="line"/>
      <point x="457" y="136" type="line" smooth="yes"/>
      <point x="491" y="136"/>
      <point x="520" y="106"/>
      <point x="520" y="68" type="qcurve" smooth="yes"/>
      <point x="520" y="30"/>
      <point x="491" y="0"/>
      <point x="457" y="0" type="qcurve" smooth="yes"/>
      <point x="143" y="0" type="line" smooth="yes"/>
      <point x="109" y="0"/>
      <point x="80" y="30"/>
      <point x="80" y="68" type="qcurve" smooth="yes"/>
      <point x="80" y="106"/>
      <point x="109" y="136"/>
      <point x="143" y="136" type="qcurve" smooth="yes"/>
      <point x="215" y="136" type="line"/>
    </contour>
  </outline>
</glyph>
<glyph name="K" format="2">
  <advance width="1228"/>
  <unicode hex="004B"/>
  <outline>
    <contour>
      <point x="255" y="1051" type="line"/>
      <point x="143" y="1051" type="line" smooth="yes"/>
      <point x="109" y="1051"/>
      <point x="80" y="1081"/>
      <point x="80" y="1119" type="qcurve" smooth="yes"/>
      <point x="80" y="1157"/>
      <point x="109" y="1187"/>
      <point x="143" y="1187" type="qcurve" smooth="yes"/>
      <point x="497" y="1187" type="line" smooth="yes"/>
      <point x="531" y="1187"/>
      <point x="560" y="1157"/>
      <point x="560" y="1119" type="qcurve" smooth="yes"/>
      <point x="560" y="1081"/>
      <point x="531" y="1051"/>
      <point x="497" y="1051" type="qcurve" smooth="yes"/>
      <point x="405" y="1051" type="line"/>
      <point x="405" y="630" type="line"/>
      <point x="839" y="1051" type="line"/>
      <point x="771" y="1051" type="line" smooth="yes"/>
      <point x="737" y="1051"/>
      <point x="708" y="1081"/>
      <point x="708" y="1119" type="qcurve" smooth="yes"/>
      <point x="708" y="1157"/>
      <point x="737" y="1187"/>
      <point x="771" y="1187" type="qcurve" smooth="yes"/>
      <point x="1095" y="1187" type="line" smooth="yes"/>
      <point x="1129" y="1187"/>
      <point x="1158" y="1157"/>
      <point x="1158" y="1119" type="qcurve" smooth="yes"/>
      <point x="1158" y="1081"/>
      <point x="1129" y="1051"/>
      <point x="1095" y="1051" type="qcurve" smooth="yes"/>
      <point x="1038" y="1051" type="line"/>
      <point x="615" y="646" type="line"/>
      <point x="683" y="651"/>
      <point x="801" y="607"/>
      <point x="848" y="547" type="qcurve" smooth="yes"/>
      <point x="876" y="510"/>
      <point x="920" y="420"/>
      <point x="938.0" y="374.0" type="qcurve" smooth="yes" name="inserted"/>
      <point x="956" y="328"/>
      <point x="989" y="241"/>
      <point x="1007" y="208" type="qcurve" smooth="yes"/>
      <point x="1025" y="175"/>
      <point x="1068" y="136"/>
      <point x="1097" y="136" type="qcurve" smooth="yes"/>
      <point x="1125" y="136" type="line" smooth="yes"/>
      <point x="1159" y="136"/>
      <point x="1188" y="106"/>
      <point x="1188" y="68" type="qcurve" smooth="yes"/>
      <point x="1188" y="30"/>
      <point x="1159" y="0"/>
      <point x="1125" y="0" type="qcurve" smooth="yes"/>
      <point x="1043" y="0" type="line" smooth="yes"/>
      <point x="998" y="0"/>
      <point x="910" y="62"/>
      <point x="871" y="139" type="qcurve" smooth="yes"/>
      <point x="851" y="179"/>
      <point x="817" y="266"/>
      <point x="801.0" y="308.5" type="qcurve" smooth="yes" name="inserted"/>
      <point x="785" y="351"/>
      <point x="750" y="429"/>
      <point x="728" y="460" type="qcurve" smooth="yes"/>
      <point x="704" y="495"/>
      <point x="632" y="532"/>
      <point x="585" y="532" type="qcurve" smooth="yes"/>
      <point x="544" y="532"/>
      <point x="466" y="503"/>
      <point x="435" y="473" type="qcurve" smooth="yes"/>
      <point x="405" y="444" type="line"/>
      <point x="405" y="136" type="line"/>
      <point x="567" y="136" type="line" smooth="yes"/>
      <point x="601" y="136"/>
      <point x="630" y="106"/>
      <point x="630" y="68" type="qcurve" smooth="yes"/>
      <point x="630" y="30"/>
      <point x="601" y="0"/>
      <point x="567" y="0" type="qcurve" smooth="yes"/>
      <point x="143" y="0" type="line" smooth="yes"/>
      <point x="109" y="0"/>
      <point x="80" y="30"/>
      <point x="80" y="68" type="qcurve" smooth="yes"/>
      <point x="80" y="106"/>
      <point x="109" y="136"/>
      <point x="143" y="136" type="qcurve" smooth="yes"/>
      <point x="255" y="136" type="line"/>
    </contour>
  </outline>
</glyph>
<glyph name="R" format="2">
  <advance width="1228"/>
  <unicode hex="0052"/>
  <outline>
    <contour>
      <point x="265" y="1051" type="line"/>
      <point x="143" y="1051" type="line" smooth="yes"/>
      <point x="109" y="1051"/>
      <point x="80" y="1081"/>
      <point x="80" y="1119" type="qcurve" smooth="yes"/>
      <point x="80" y="1157"/>
      <point x="109" y="1187"/>
      <point x="143" y="1187" type="qcurve" smooth="yes"/>
      <point x="649" y="1187" type="line" smooth="yes"/>
      <point x="745" y="1187"/>
      <point x="893" y="1138"/>
      <point x="943.5" y="1094.0" type="qcurve" smooth="yes" name="inserted"/>
      <point x="994" y="1050"/>
      <point x="1046" y="925"/>
      <point x="1046" y="850" type="qcurve" smooth="yes"/>
      <point x="1046" y="792"/>
      <point x="1007" y="694"/>
      <point x="971.0" y="656.0" type="qcurve" smooth="yes" name="inserted"/>
      <point x="935" y="618"/>
      <point x="832" y="563"/>
      <point x="769" y="549" type="qcurve"/>
      <point x="795" y="537"/>
      <point x="839" y="501"/>
      <point x="859" y="479" type="qcurve" smooth="yes"/>
      <point x="884" y="451"/>
      <point x="929" y="385"/>
      <point x="948.5" y="351.5" type="qcurve" smooth="yes" name="inserted"/>
      <point x="968" y="318"/>
      <point x="1004" y="252"/>
      <point x="1021" y="224" type="qcurve" smooth="yes"/>
      <point x="1045" y="184"/>
      <point x="1095" y="136"/>
      <point x="1126" y="136" type="qcurve" smooth="yes"/>
      <point x="1145" y="136" type="line" smooth="yes"/>
      <point x="1179" y="136"/>
      <point x="1208" y="106"/>
      <point x="1208" y="68" type="qcurve" smooth="yes"/>
      <point x="1208" y="30"/>
      <point x="1179" y="0"/>
      <point x="1145" y="0" type="qcurve" smooth="yes"/>
      <point x="1075" y="0" type="line" smooth="yes"/>
      <point x="1032" y="0"/>
      <point x="947" y="61"/>
      <point x="899" y="139" type="qcurve" smooth="yes"/>
      <point x="879" y="172"/>
      <point x="841" y="242"/>
      <point x="822.0" y="276.5" type="qcurve" smooth="yes" name="inserted"/>
      <point x="803" y="311"/>
      <point x="763" y="374"/>
      <point x="742" y="401" type="qcurve" smooth="yes"/>
      <point x="716" y="434"/>
      <point x="661" y="478"/>
      <point x="629.0" y="491.0" type="qcurve" smooth="yes" name="inserted"/>
      <point x="597" y="504"/>
      <point x="523" y="515"/>
      <point x="477" y="515" type="qcurve" smooth="yes"/>
      <point x="415" y="515" type="line"/>
      <point x="415" y="136" type="line"/>
      <point x="545" y="136" type="line" smooth="yes"/>
      <point x="579" y="136"/>
      <point x="608" y="106"/>
      <point x="608" y="68" type="qcurve" smooth="yes"/>
      <point x="608" y="30"/>
      <point x="579" y="0"/>
      <point x="545" y="0" type="qcurve" smooth="yes"/>
      <point x="143" y="0" type="line" smooth="yes"/>
      <point x="109" y="0"/>
      <point x="80" y="30"/>
      <point x="80" y="68" type="qcurve" smooth="yes"/>
      <point x="80" y="106"/>
      <point x="109" y="136"/>
      <point x="143" y="136" type="qcurve" smooth="yes"/>
      <point x="265" y="136" type="line"/>
    </contour>
    <contour>
      <point x="415" y="1051" type="line"/>
      <point x="415" y="651" type="line"/>
      <point x="618" y="651" type="line" smooth="yes"/>
      <point x="680" y="651"/>
      <point x="780" y="673"/>
      <point x="815.0" y="697.0" type="qcurve" smooth="yes" name="inserted"/>
      <point x="850" y="721"/>
      <point x="888" y="797"/>
      <point x="888" y="850" type="qcurve" smooth="yes"/>
      <point x="888" y="947"/>
      <point x="753" y="1051"/>
      <point x="628" y="1051" type="qcurve" smooth="yes"/>
    </contour>
  </outline>
</glyph>
<glyph name="T" format="2">
  <advance width="1228"/>
  <unicode hex="0054"/>
  <outline>
    <contour>
      <point x="539" y="1051" type="line"/>
      <point x="272" y="1051" type="line"/>
      <point x="272" y="742" type="line" smooth="yes"/>
      <point x="272" y="707"/>
      <point x="239" y="677"/>
      <point x="197" y="677" type="qcurve" smooth="yes"/>
      <point x="155" y="677"/>
      <point x="122" y="707"/>
      <point x="122" y="742" type="qcurve" smooth="yes"/>
      <point x="122" y="1119" type="line" smooth="yes"/>
      <point x="122" y="1157"/>
      <point x="151" y="1187"/>
      <point x="185" y="1187" type="qcurve" smooth="yes"/>
      <point x="1043" y="1187" type="line" smooth="yes"/>
      <point x="1077" y="1187"/>
      <point x="1106" y="1157"/>
      <point x="1106" y="1119" type="qcurve" smooth="yes"/>
      <point x="1106" y="742" type="line" smooth="yes"/>
      <point x="1106" y="707"/>
      <point x="1073" y="677"/>
      <point x="1031" y="677" type="qcurve" smooth="yes"/>
      <point x="989" y="677"/>
      <point x="956" y="707"/>
      <point x="956" y="742" type="qcurve" smooth="yes"/>
      <point x="956" y="1051" type="line"/>
      <point x="689" y="1051" type="line"/>
      <point x="689" y="136" type="line"/>
      <point x="925" y="136" type="line" smooth="yes"/>
      <point x="959" y="136"/>
      <point x="988" y="106"/>
      <point x="988" y="68" type="qcurve" smooth="yes"/>
      <point x="988" y="30"/>
      <point x="959" y="0"/>
      <point x="925" y="0" type="qcurve" smooth="yes"/>
      <point x="303" y="0" type="line" smooth="yes"/>
      <point x="269" y="0"/>
      <point x="240" y="30"/>
      <point x="240" y="68" type="qcurve" smooth="yes"/>
      <point x="240" y="106"/>
      <point x="269" y="136"/>
      <point x="303" y="136" type="qcurve" smooth="yes"/>
      <point x="539" y="136" type="line"/>
    </contour>
  </outline>
</glyph>
<glyph name="W" format="2">
  <advance width="1228"/>
  <unicode hex="0057"/>
  <outline>
    <contour>
      <point x="53" y="1051" type="line" smooth="yes"/>
      <point x="19" y="1051"/>
      <point x="-10" y="1081"/>
      <point x="-10" y="1119" type="qcurve" smooth="yes"/>
      <point x="-10" y="1157"/>
      <point x="19" y="1187"/>
      <point x="53" y="1187" type="qcurve" smooth="yes"/>
      <point x="397" y="1187" type="line" smooth="yes"/>
      <point x="431" y="1187"/>
      <point x="460" y="1157"/>
      <point x="460" y="1119" type="qcurve" smooth="yes"/>
      <point x="460" y="1081"/>
      <point x="431" y="1051"/>
      <point x="397" y="1051" type="qcurve" smooth="yes"/>
      <point x="251" y="1051" type="line"/>
      <point x="351" y="250" type="line"/>
      <point x="539" y="838" type="line" smooth="yes"/>
      <point x="545" y="858"/>
      <point x="579" y="885"/>
      <point x="611" y="885" type="qcurve" smooth="yes"/>
      <point x="644" y="885"/>
      <point x="678" y="865"/>
      <point x="684" y="845" type="qcurve" smooth="yes"/>
      <point x="871" y="250" type="line"/>
      <point x="975" y="1051" type="line"/>
      <point x="851" y="1051" type="line" smooth="yes"/>
      <point x="817" y="1051"/>
      <point x="788" y="1081"/>
      <point x="788" y="1119" type="qcurve" smooth="yes"/>
      <point x="788" y="1157"/>
      <point x="817" y="1187"/>
      <point x="851" y="1187" type="qcurve" smooth="yes"/>
      <point x="1175" y="1187" type="line" smooth="yes"/>
      <point x="1209" y="1187"/>
      <point x="1238" y="1157"/>
      <point x="1238" y="1119" type="qcurve" smooth="yes"/>
      <point x="1238" y="1081"/>
      <point x="1209" y="1051"/>
      <point x="1175" y="1051" type="qcurve" smooth="yes"/>
      <point x="1121" y="1051" type="line"/>
      <point x="983" y="43" type="line" smooth="yes"/>
      <point x="978" y="6"/>
      <point x="935" y="-22"/>
      <point x="897" y="-22" type="qcurve" smooth="yes"/>
      <point x="859" y="-22"/>
      <point x="806" y="8"/>
      <point x="795" y="43" type="qcurve" smooth="yes"/>
      <point x="610" y="624" type="line"/>
      <point x="423" y="43" type="line" smooth="yes"/>
      <point x="412" y="8"/>
      <point x="357" y="-22"/>
      <point x="319" y="-22" type="qcurve" smooth="yes"/>
      <point x="281" y="-22"/>
      <point x="240" y="7"/>
      <point x="235" y="43" type="qcurve" smooth="yes"/>
      <point x="102" y="1051" type="line"/>
    </contour>
  </outline>
</glyph>
<glyph name="bracketleft" format="2">
  <advance width="1228"/>
  <unicode hex="005B"/>
  <outline>
    <contour>
      <point x="807" y="-257" type="line" smooth="yes"/>
      <point x="841" y="-257"/>
      <point x="870" y="-287"/>
      <point x="870" y="-325" type="qcurve" smooth="yes"/>
      <point x="870" y="-363"/>
      <point x="841" y="-393"/>
      <point x="807" y="-393" type="qcurve" smooth="yes"/>
      <point x="393" y="-393" type="line" smooth="yes"/>
      <point x="359" y="-393"/>
      <point x="330" y="-363"/>
      <point x="330" y="-325" type="qcurve" smooth="yes"/>
      <point x="330" y="1244" type="line" smooth="yes"/>
      <point x="330" y="1282"/>
      <point x="359" y="1312"/>
      <point x="393" y="1312" type="qcurve" smooth="yes"/>
      <point x="807" y="1312" type="line" smooth="yes"/>
      <point x="841" y="1312"/>
      <point x="870" y="1282"/>
      <point x="870" y="1244" type="qcurve" smooth="yes"/>
      <point x="870" y="1206"/>
      <point x="841" y="1176"/>
      <point x="807" y="1176" type="qcurve" smooth="yes"/>
      <point x="480" y="1176" type="line"/>
      <point x="480" y="-257" type="line"/>
    </contour>
  </outline>
</glyph>
<glyph name="d" format="2">
  <advance width="1228"/>
  <unicode hex="0064"/>
  <outline>
    <contour>
      <point x="1108" y="136" type="line" smooth="yes"/>
      <point x="1142" y="136"/>
      <point x="1171" y="106"/>
      <point x="1171" y="68" type="qcurve" smooth="yes"/>
      <point x="1171" y="30"/>
      <point x="1142" y="0"/>
      <point x="1108" y="0" type="qcurve" smooth="yes"/>
      <point x="949" y="0" type="line" smooth="yes"/>
      <point x="915" y="0"/>
      <point x="886" y="30"/>
      <point x="886" y="68" type="qcurve" smooth="yes"/>
      <point x="886" y="148" type="line"/>
      <point x="824" y="67"/>
      <point x="659" y="-22"/>
      <point x="559" y="-22" type="qcurve" smooth="yes"/>
      <point x="466" y="-22"/>
      <point x="308" y="41"/>
      <point x="250.5" y="100.0" type="qcurve" smooth="yes" name="inserted"/>
      <point x="193" y="159"/>
      <point x="127" y="329"/>
      <point x="127" y="437" type="qcurve" smooth="yes"/>
      <point x="127" y="545"/>
      <point x="193" y="715"/>
      <point x="250.5" y="774.0" type="qcurve" smooth="yes" name="inserted"/>
      <point x="308" y="833"/>
      <point x="466" y="896"/>
      <point x="559" y="896" type="qcurve" smooth="yes"/>
      <point x="659" y="896"/>
      <point x="816" y="815"/>
      <point x="876" y="740" type="qcurve"/>
      <point x="876" y="1176" type="line"/>
      <point x="674" y="1176" type="line" smooth="yes"/>
      <point x="640" y="1176"/>
      <point x="611" y="1206"/>
      <point x="611" y="1244" type="qcurve" smooth="yes"/>
      <point x="611" y="1282"/>
      <point x="640" y="1312"/>
      <point x="674" y="1312" type="qcurve" smooth="yes"/>
      <point x="963" y="1312" type="line" smooth="yes"/>
      <point x="997" y="1312"/>
      <point x="1026" y="1282"/>
      <point x="1026" y="1244" type="qcurve" smooth="yes"/>
      <point x="1026" y="136" type="line"/>
    </contour>
    <contour>
      <point x="876" y="437" type="qcurve" smooth="yes"/>
      <point x="876" y="511"/>
      <point x="830" y="627"/>
      <point x="789.0" y="666.5" type="qcurve" smooth="yes" name="inserted"/>
      <point x="748" y="706"/>
      <point x="635" y="748"/>
      <point x="569" y="748" type="qcurve" smooth="yes"/>
      <point x="501" y="748"/>
      <point x="395" y="702"/>
      <point x="359.0" y="660.5" type="qcurve" smooth="yes" name="inserted"/>
      <point x="323" y="619"/>
      <point x="285" y="505"/>
      <point x="285" y="437" type="qcurve" smooth="yes"/>
      <point x="285" y="369"/>
      <point x="323" y="255"/>
      <point x="359.0" y="213.5" type="qcurve" smooth="yes" name="inserted"/>
      <point x="395" y="172"/>
      <point x="501" y="126"/>
      <point x="569" y="126" type="qcurve" smooth="yes"/>
      <point x="635" y="126"/>
      <point x="748" y="168"/>
      <point x="789.0" y="207.5" type="qcurve" smooth="yes" name="inserted"/>
      <point x="830" y="247"/>
      <point x="876" y="363"/>
    </contour>
  </outline>
</glyph>
<glyph name="m" format="2">
  <advance width="1228"/>
  <unicode hex="006D"/>
  <outline>
    <contour>
      <point x="271" y="757" type="line"/>
      <point x="315" y="854"/>
      <point x="435" y="946"/>
      <point x="504" y="946" type="qcurve" smooth="yes"/>
      <point x="537" y="946"/>
      <point x="596" y="924"/>
      <point x="621.0" y="901.5" type="qcurve" smooth="yes" name="inserted"/>
      <point x="646" y="879"/>
      <point x="683" y="811"/>
      <point x="692" y="765" type="qcurve"/>
      <point x="737" y="857"/>
      <point x="853" y="946"/>
      <point x="922" y="946" type="qcurve" smooth="yes"/>
      <point x="965" y="946"/>
      <point x="1040" y="914"/>
      <point x="1068.0" y="881.0" type="qcurve" smooth="yes" name="inserted"/>
      <point x="1096" y="848"/>
      <point x="1129" y="747"/>
      <point x="1129" y="678" type="qcurve" smooth="yes"/>
      <point x="1129" y="136" type="line"/>
      <point x="1191" y="136" type="line" smooth="yes"/>
      <point x="1225" y="136"/>
      <point x="1254" y="106"/>
      <point x="1254" y="68" type="qcurve" smooth="yes"/>
      <point x="1254" y="30"/>
      <point x="1225" y="0"/>
      <point x="1191" y="0" type="qcurve" smooth="yes"/>
      <point x="1042" y="0" type="line" smooth="yes"/>
      <point x="1008" y="0"/>
      <point x="979" y="30"/>
      <point x="979" y="68" type="qcurve" smooth="yes"/>
      <point x="979" y="660" type="line" smooth="yes"/>
      <point x="979" y="727"/>
      <point x="935" y="798"/>
      <point x="884" y="798" type="qcurve" smooth="yes"/>
      <point x="848" y="798"/>
      <point x="785" y="748"/>
      <point x="761.5" y="703.0" type="qcurve" smooth="yes" name="inserted"/>
      <point x="738" y="658"/>
      <point x="710" y="533"/>
      <point x="710" y="457" type="qcurve" smooth="yes"/>
      <point x="710" y="136" type="line"/>
      <point x="767" y="136" type="line" smooth="yes"/>
      <point x="801" y="136"/>
      <point x="830" y="106"/>
      <point x="830" y="68" type="qcurve" smooth="yes"/>
      <point x="830" y="30"/>
      <point x="801" y="0"/>
      <point x="767" y="0" type="qcurve" smooth="yes"/>
      <point x="623" y="0" type="line" smooth="yes"/>
      <point x="589" y="0"/>
      <point x="560" y="30"/>
      <point x="560" y="68" type="qcurve" smooth="yes"/>
      <point x="560" y="660" type="line" smooth="yes"/>
      <point x="560" y="727"/>
      <point x="516" y="798"/>
      <point x="465" y="798" type="qcurve" smooth="yes"/>
      <point x="429" y="798"/>
      <point x="366" y="748"/>
      <point x="342.5" y="703.0" type="qcurve" smooth="yes" name="inserted"/>
      <point x="319" y="658"/>
      <point x="291" y="533"/>
      <point x="291" y="457" type="qcurve" smooth="yes"/>
      <point x="291" y="136" type="line"/>
      <point x="343" y="136" type="line" smooth="yes"/>
      <point x="377" y="136"/>
      <point x="406" y="106"/>
      <point x="406" y="68" type="qcurve" smooth="yes"/>
      <point x="406" y="30"/>
      <point x="377" y="0"/>
      <point x="343" y="0" type="qcurve" smooth="yes"/>
      <point x="59" y="0" type="line" smooth="yes"/>
      <point x="25" y="0"/>
      <point x="-4" y="30"/>
      <point x="-4" y="68" type="qcurve" smooth="yes"/>
      <point x="-4" y="106"/>
      <point x="25" y="136"/>
      <point x="59" y="136" type="qcurve" smooth="yes"/>
      <point x="141" y="136" type="line"/>
      <point x="141" y="788" type="line"/>
      <point x="59" y="788" type="line" smooth="yes"/>
      <point x="25" y="788"/>
      <point x="-4" y="818"/>
      <point x="-4" y="856" type="qcurve" smooth="yes"/>
      <point x="-4" y="894"/>
      <point x="25" y="924"/>
      <point x="59" y="924" type="qcurve" smooth="yes"/>
      <point x="208" y="924" type="line" smooth="yes"/>
      <point x="242" y="924"/>
      <point x="271" y="894"/>
      <point x="271" y="856" type="qcurve" smooth="yes"/>
    </contour>
  </outline>
</glyph>
<glyph name="n" format="2">
  <advance width="1228"/>
  <unicode hex="006E"/>
  <outline>
    <contour>
      <point x="242" y="788" type="line"/>
      <point x="140" y="788" type="line" smooth="yes"/>
      <point x="106" y="788"/>
      <point x="77" y="818"/>
      <point x="77" y="856" type="qcurve" smooth="yes"/>
      <point x="77" y="894"/>
      <point x="106" y="924"/>
      <point x="140" y="924" type="qcurve" smooth="yes"/>
      <point x="319" y="924" type="line" smooth="yes"/>
      <point x="353" y="924"/>
      <point x="382" y="894"/>
      <point x="382" y="856" type="qcurve" smooth="yes"/>
      <point x="382" y="736" type="line"/>
      <point x="448" y="839"/>
      <point x="624" y="946"/>
      <point x="727" y="946" type="qcurve" smooth="yes"/>
      <point x="796" y="946"/>
      <point x="906" y="900"/>
      <point x="944.5" y="858.0" type="qcurve" smooth="yes" name="inserted"/>
      <point x="983" y="816"/>
      <point x="1024" y="695"/>
      <point x="1024" y="620" type="qcurve" smooth="yes"/>
      <point x="1024" y="136" type="line"/>
      <point x="1106" y="136" type="line" smooth="yes"/>
      <point x="1140" y="136"/>
      <point x="1169" y="106"/>
      <point x="1169" y="68" type="qcurve" smooth="yes"/>
      <point x="1169" y="30"/>
      <point x="1140" y="0"/>
      <point x="1106" y="0" type="qcurve" smooth="yes"/>
      <point x="782" y="0" type="line" smooth="yes"/>
      <point x="748" y="0"/>
      <point x="719" y="30"/>
      <point x="719" y="68" type="qcurve" smooth="yes"/>
      <point x="719" y="106"/>
      <point x="748" y="136"/>
      <point x="782" y="136" type="qcurve" smooth="yes"/>
      <point x="874" y="136" type="line"/>
      <point x="874" y="605" type="line" smooth="yes"/>
      <point x="874" y="648"/>
      <point x="854" y="719"/>
      <point x="834.0" y="744.5" type="qcurve" smooth="yes" name="inserted"/>
      <point x="814" y="770"/>
      <point x="753" y="798"/>
      <point x="712" y="798" type="qcurve" smooth="yes"/>
      <point x="648" y="798"/>
      <point x="532" y="742"/>
      <point x="488.0" y="692.0" type="qcurve" smooth="yes" name="inserted"/>
      <point x="444" y="642"/>
      <point x="392" y="504"/>
      <point x="392" y="422" type="qcurve" smooth="yes"/>
      <point x="392" y="136" type="line"/>
      <point x="484" y="136" type="line" smooth="yes"/>
      <point x="518" y="136"/>
      <point x="547" y="106"/>
      <point x="547" y="68" type="qcurve" smooth="yes"/>
      <point x="547" y="30"/>
      <point x="518" y="0"/>
      <point x="484" y="0" type="qcurve" smooth="yes"/>
      <point x="160" y="0" type="line" smooth="yes"/>
      <point x="126" y="0"/>
      <point x="97" y="30"/>
      <point x="97" y="68" type="qcurve" smooth="yes"/>
      <point x="97" y="106"/>
      <point x="126" y="136"/>
      <point x="160" y="136" type="qcurve" smooth="yes"/>
      <point x="242" y="136" type="line"/>
    </contour>
  </outline>
</glyph>
<glyph name="v" format="2">
  <advance width="1228"/>
  <unicode hex="0076"/>
  <outline>
    <contour>
      <point x="113" y="788" type="line" smooth="yes"/>
      <point x="79" y="788"/>
      <point x="50" y="818"/>
      <point x="50" y="856" type="qcurve" smooth="yes"/>
      <point x="50" y="894"/>
      <point x="79" y="924"/>
      <point x="113" y="924" type="qcurve" smooth="yes"/>
      <point x="467" y="924" type="line" smooth="yes"/>
      <point x="501" y="924"/>
      <point x="530" y="894"/>
      <point x="530" y="856" type="qcurve" smooth="yes"/>
      <point x="530" y="818"/>
      <point x="501" y="788"/>
      <point x="467" y="788" type="qcurve" smooth="yes"/>
      <point x="339" y="788" type="line"/>
      <point x="612" y="136" type="line"/>
      <point x="888" y="788" type="line"/>
      <point x="801" y="788" type="line" smooth="yes"/>
      <point x="767" y="788"/>
      <point x="738" y="818"/>
      <point x="738" y="856" type="qcurve" smooth="yes"/>
      <point x="738" y="894"/>
      <point x="767" y="924"/>
      <point x="801" y="924" type="qcurve" smooth="yes"/>
      <point x="1115" y="924" type="line" smooth="yes"/>
      <point x="1149" y="924"/>
      <point x="1178" y="894"/>
      <point x="1178" y="856" type="qcurve" smooth="yes"/>
      <point x="1178" y="818"/>
      <point x="1149" y="788"/>
      <point x="1115" y="788" type="qcurve" smooth="yes"/>
      <point x="1052" y="788" type="line"/>
      <point x="729" y="43" type="line" smooth="yes"/>
      <point x="715" y="9"/>
      <point x="661" y="-22"/>
      <point x="611" y="-22" type="qcurve" smooth="yes"/>
      <point x="561" y="-22"/>
      <point x="509" y="10"/>
      <point x="495" y="43" type="qcurve" smooth="yes"/>
      <point x="175" y="788" type="line"/>
    </contour>
  </outline>
</glyph>
<glyph name="x" format="2">
  <advance width="1228"/>
  <unicode hex="0078"/>
  <outline>
    <contour>
      <point x="183" y="136" type="line"/>
      <point x="508" y="477" type="line"/>
      <point x="214" y="788" type="line"/>
      <point x="143" y="788" type="line" smooth="yes"/>
      <point x="109" y="788"/>
      <point x="80" y="818"/>
      <point x="80" y="856" type="qcurve" smooth="yes"/>
      <point x="80" y="894"/>
      <point x="109" y="924"/>
      <point x="143" y="924" type="qcurve" smooth="yes"/>
      <point x="487" y="924" type="line" smooth="yes"/>
      <point x="521" y="924"/>
      <point x="550" y="894"/>
      <point x="550" y="856" type="qcurve" smooth="yes"/>
      <point x="550" y="818"/>
      <point x="521" y="788"/>
      <point x="487" y="788" type="qcurve" smooth="yes"/>
      <point x="411" y="788" type="line"/>
      <point x="623" y="558" type="line"/>
      <point x="836" y="788" type="line"/>
      <point x="781" y="788" type="line" smooth="yes"/>
      <point x="747" y="788"/>
      <point x="718" y="818"/>
      <point x="718" y="856" type="qcurve" smooth="yes"/>
      <point x="718" y="894"/>
      <point x="747" y="924"/>
      <point x="781" y="924" type="qcurve" smooth="yes"/>
      <point x="1085" y="924" type="line" smooth="yes"/>
      <point x="1119" y="924"/>
      <point x="1148" y="894"/>
      <point x="1148" y="856" type="qcurve" smooth="yes"/>
      <point x="1148" y="818"/>
      <point x="1119" y="788"/>
      <point x="1085" y="788" type="qcurve" smooth="yes"/>
      <point x="1020" y="788" type="line"/>
      <point x="723" y="475" type="line"/>
      <point x="1044" y="136" type="line"/>
      <point x="1095" y="136" type="line" smooth="yes"/>
      <point x="1129" y="136"/>
      <point x="1158" y="106"/>
      <point x="1158" y="68" type="qcurve" smooth="yes"/>
      <point x="1158" y="30"/>
      <point x="1129" y="0"/>
      <point x="1095" y="0" type="qcurve" smooth="yes"/>
      <point x="751" y="0" type="line" smooth="yes"/>
      <point x="717" y="0"/>
      <point x="688" y="30"/>
      <point x="688" y="68" type="qcurve" smooth="yes"/>
      <point x="688" y="106"/>
      <point x="717" y="136"/>
      <point x="751" y="136" type="qcurve" smooth="yes"/>
      <point x="847" y="136" type="line"/>
      <point x="607" y="394" type="line"/>
      <point x="368" y="136" type="line"/>
      <point x="447" y="136" type="line" smooth="yes"/>
      <point x="481" y="136"/>
      <point x="510" y="106"/>
      <point x="510" y="68" type="qcurve" smooth="yes"/>
      <point x="510" y="30"/>
      <point x="481" y="0"/>
      <point x="447" y="0" type="qcurve" smooth="yes"/>
      <point x="133" y="0" type="line" smooth="yes"/>
      <point x="99" y="0"/>
      <point x="70" y="30"/>
      <point x="70" y="68" type="qcurve" smooth="yes"/>
      <point x="70" y="106"/>
      <point x="99" y="136"/>
      <point x="133" y="136" type="qcurve" smooth="yes"/>
    </contour>
  </outline>
</glyph>
<glyph name="y" format="2">
  <advance width="1228"/>
  <unicode hex="0079"/>
  <outline>
    <contour>
      <point x="1115" y="924" type="line" smooth="yes"/>
      <point x="1149" y="924"/>
      <point x="1178" y="894"/>
      <point x="1178" y="856" type="qcurve" smooth="yes"/>
      <point x="1178" y="818"/>
      <point x="1149" y="788"/>
      <point x="1115" y="788" type="qcurve" smooth="yes"/>
      <point x="1053" y="788" type="line"/>
      <point x="644" y="-50" type="line" smooth="yes"/>
      <point x="596" y="-148"/>
      <point x="504" y="-284"/>
      <point x="451.0" y="-327.0" type="qcurve" smooth="yes" name="inserted"/>
      <point x="398" y="-370"/>
      <point x="271" y="-411"/>
      <point x="189" y="-414" type="qcurve" smooth="yes"/>
      <point x="160" y="-415"/>
      <point x="121" y="-387"/>
      <point x="117" y="-347" type="qcurve" smooth="yes"/>
      <point x="113" y="-303"/>
      <point x="142" y="-265"/>
      <point x="169" y="-263" type="qcurve" smooth="yes"/>
      <point x="238" y="-259"/>
      <point x="335" y="-230"/>
      <point x="375.0" y="-194.0" type="qcurve" smooth="yes" name="inserted"/>
      <point x="415" y="-158"/>
      <point x="492" y="-31"/>
      <point x="542" y="70" type="qcurve"/>
      <point x="176" y="788" type="line"/>
      <point x="113" y="788" type="line" smooth="yes"/>
      <point x="79" y="788"/>
      <point x="50" y="818"/>
      <point x="50" y="856" type="qcurve" smooth="yes"/>
      <point x="50" y="894"/>
      <point x="79" y="924"/>
      <point x="113" y="924" type="qcurve" smooth="yes"/>
      <point x="467" y="924" type="line" smooth="yes"/>
      <point x="501" y="924"/>
      <point x="530" y="894"/>
      <point x="530" y="856" type="qcurve" smooth="yes"/>
      <point x="530" y="818"/>
      <point x="501" y="788"/>
      <point x="467" y="788" type="qcurve" smooth="yes"/>
      <point x="339" y="788" type="line"/>
      <point x="621" y="226" type="line"/>
      <point x="890" y="788" type="line"/>
      <point x="801" y="788" type="line" smooth="yes"/>
      <point x="767" y="788"/>
      <point x="738" y="818"/>
      <point x="738" y="856" type="qcurve" smooth="yes"/>
      <point x="738" y="894"/>
      <point x="767" y="924"/>
      <point x="801" y="924" type="qcurve" smooth="yes"/>
    </contour>
  </outline>
</glyph>
<glyph name="exclamdown" format="2">
  <advance width="1228"/>
  <unicode hex="00A1"/>
  <outline>
    <contour>
      <point x="549" y="-22" type="line" smooth="yes"/>
      <point x="526.5" y="-22.0" name="inserted"/>
      <point x="506.0" y="3.0"/>
      <point x="508" y="28" type="qcurve" smooth="yes"/>
      <point x="557" y="675" type="line" smooth="yes"/>
      <point x="558.5" y="699.0" name="inserted"/>
      <point x="587.0" y="723.0"/>
      <point x="614" y="723" type="qcurve" smooth="yes"/>
      <point x="640" y="723"/>
      <point x="670" y="698"/>
      <point x="672" y="675" type="qcurve" smooth="yes"/>
      <point x="720" y="28" type="line" smooth="yes"/>
      <point x="722.0" y="3.0" name="inserted"/>
      <point x="701.5" y="-22.0"/>
      <point x="679" y="-22" type="qcurve" smooth="yes"/>
    </contour>
    <contour>
      <point x="768" y="1055" type="qcurve" smooth="yes"/>
      <point x="768" y="1023"/>
      <point x="744" y="967"/>
      <point x="723.0" y="946.0" type="qcurve" smooth="yes" name="inserted"/>
      <point x="702" y="925"/>
      <point x="646" y="901"/>
      <point x="614" y="901" type="qcurve" smooth="yes"/>
      <point x="582" y="901"/>
      <point x="526" y="925"/>
      <point x="505.0" y="946.0" type="qcurve" smooth="yes" name="inserted"/>
      <point x="484" y="967"/>
      <point x="460" y="1023"/>
      <point x="460" y="1055" type="qcurve" smooth="yes"/>
      <point x="460" y="1087"/>
      <point x="484" y="1143"/>
      <point x="505.0" y="1164.0" type="qcurve" smooth="yes" name="inserted"/>
      <point x="526" y="1185"/>
      <point x="582" y="1209"/>
      <point x="614" y="1209" type="qcurve" smooth="yes"/>
      <point x="646" y="1209"/>
      <point x="702" y="1185"/>
      <point x="723.0" y="1164.0" type="qcurve" smooth="yes" name="inserted"/>
      <point x="744" y="1143"/>
      <point x="768" y="1087"/>
    </contour>
  </outline>
</glyph>
<glyph name="copyright" format="2">
  <advance width="1228"/>
  <unicode hex="00A9"/>
  <outline>
    <contour>
      <point x="629" y="937" type="qcurve" smooth="yes"/>
      <point x="674" y="937"/>
      <point x="767" y="917"/>
      <point x="809" y="897" type="qcurve" smooth="yes"/>
      <point x="838" y="883"/>
      <point x="855" y="843"/>
      <point x="843" y="811" type="qcurve" smooth="yes"/>
      <point x="831" y="779"/>
      <point x="794" y="768"/>
      <point x="769" y="779" type="qcurve" smooth="yes"/>
      <point x="733" y="796"/>
      <point x="667" y="811"/>
      <point x="629" y="811" type="qcurve" smooth="yes"/>
      <point x="591" y="811"/>
      <point x="525" y="784"/>
      <point x="500.5" y="756.5" type="qcurve" smooth="yes" name="inserted"/>
      <point x="476" y="729"/>
      <point x="448" y="647"/>
      <point x="448" y="593" type="qcurve" smooth="yes"/>
      <point x="448" y="539"/>
      <point x="476" y="457"/>
      <point x="500.5" y="429.5" type="qcurve" smooth="yes" name="inserted"/>
      <point x="525" y="402"/>
      <point x="591" y="375"/>
      <point x="629" y="375" type="qcurve" smooth="yes"/>
      <point x="667" y="375"/>
      <point x="733" y="390"/>
      <point x="769" y="407" type="qcurve" smooth="yes"/>
      <point x="794" y="418"/>
      <point x="831" y="407"/>
      <point x="843" y="375" type="qcurve" smooth="yes"/>
      <point x="855" y="343"/>
      <point x="838" y="303"/>
      <point x="809" y="289" type="qcurve" smooth="yes"/>
      <point x="767" y="269"/>
      <point x="674" y="249"/>
      <point x="629" y="249" type="qcurve" smooth="yes"/>
      <point x="561" y="249"/>
      <point x="446" y="296"/>
      <point x="404.0" y="340.0" type="qcurve" smooth="yes" name="inserted"/>
      <point x="362" y="384"/>
      <point x="315" y="512"/>
      <point x="315" y="593" type="qcurve" smooth="yes"/>
      <point x="315" y="674"/>
      <point x="362" y="802"/>
      <point x="404.0" y="846.0" type="qcurve" smooth="yes" name="inserted"/>
      <point x="446" y="890"/>
      <point x="561" y="937"/>
    </contour>
    <contour>
      <point x="36" y="594" type="qcurve" smooth="yes"/>
      <point x="36" y="723"/>
      <point x="121" y="947"/>
      <point x="197.5" y="1030.0" type="qcurve" smooth="yes" name="inserted"/>
      <point x="274" y="1113"/>
      <point x="486" y="1209"/>
      <point x="614" y="1209" type="qcurve" smooth="yes"/>
      <point x="741" y="1209"/>
      <point x="954" y="1113"/>
      <point x="1030.5" y="1030.0" type="qcurve" smooth="yes" name="inserted"/>
      <point x="1107" y="947"/>
      <point x="1192" y="723"/>
      <point x="1192" y="594" type="qcurve" smooth="yes"/>
      <point x="1192" y="465"/>
      <point x="1107" y="241"/>
      <point x="1030.5" y="157.5" type="qcurve" smooth="yes" name="inserted"/>
      <point x="954" y="74"/>
      <point x="741" y="-22"/>
      <point x="614" y="-22" type="qcurve" smooth="yes"/>
      <point x="486" y="-22"/>
      <point x="274" y="74"/>
      <point x="197.5" y="157.5" type="qcurve" smooth="yes" name="inserted"/>
      <point x="121" y="241"/>
      <point x="36" y="465"/>
    </contour>
    <contour>
      <point x="158" y="594" type="qcurve" smooth="yes"/>
      <point x="158" y="487"/>
      <point x="224" y="305"/>
      <point x="284.0" y="239.0" type="qcurve" smooth="yes" name="inserted"/>
      <point x="344" y="173"/>
      <point x="512" y="98"/>
      <point x="614" y="98" type="qcurve" smooth="yes"/>
      <point x="716" y="98"/>
      <point x="884" y="173"/>
      <point x="944.0" y="239.0" type="qcurve" smooth="yes" name="inserted"/>
      <point x="1004" y="305"/>
      <point x="1070" y="487"/>
      <point x="1070" y="594" type="qcurve" smooth="yes"/>
      <point x="1070" y="701"/>
      <point x="1004" y="883"/>
      <point x="944.0" y="949.0" type="qcurve" smooth="yes" name="inserted"/>
      <point x="884" y="1015"/>
      <point x="716" y="1089"/>
      <point x="614" y="1089" type="qcurve" smooth="yes"/>
      <point x="512" y="1089"/>
      <point x="344" y="1015"/>
      <point x="284.0" y="949.0" type="qcurve" smooth="yes" name="inserted"/>
      <point x="224" y="883"/>
      <point x="158" y="701"/>
    </contour>
  </outline>
</glyph>
<glyph name="macron" format="2">
  <advance width="1228"/>
  <unicode hex="00AF"/>
  <outline>
    <contour>
      <point x="895" y="1246" type="line" smooth="yes"/>
      <point x="929" y="1246"/>
      <point x="958" y="1216"/>
      <point x="958" y="1178" type="qcurve" smooth="yes"/>
      <point x="958" y="1140"/>
      <point x="929" y="1110"/>
      <point x="895" y="1110" type="qcurve" smooth="yes"/>
      <point x="333" y="1110" type="line" smooth="yes"/>
      <point x="299" y="1110"/>
      <point x="270" y="1140"/>
      <point x="270" y="1178" type="qcurve" smooth="yes"/>
      <point x="270" y="1216"/>
      <point x="299" y="1246"/>
      <point x="333" y="1246" type="qcurve" smooth="yes"/>
    </contour>
  </outline>
</glyph>
<glyph name="degree" format="2">
  <advance width="1228"/>
  <unicode hex="00B0"/>
  <outline>
    <contour>
      <point x="246" y="929" type="qcurve" smooth="yes"/>
      <point x="246" y="987"/>
      <point x="290" y="1089"/>
      <point x="328.0" y="1127.0" type="qcurve" smooth="yes" name="inserted"/>
      <point x="366" y="1165"/>
      <point x="468" y="1209"/>
      <point x="526" y="1209" type="qcurve" smooth="yes"/>
      <point x="584" y="1209"/>
      <point x="686" y="1165"/>
      <point x="724.0" y="1127.0" type="qcurve" smooth="yes" name="inserted"/>
      <point x="762" y="1089"/>
      <point x="806" y="987"/>
      <point x="806" y="929" type="qcurve" smooth="yes"/>
      <point x="806" y="871"/>
      <point x="762" y="769"/>
      <point x="724.0" y="731.0" type="qcurve" smooth="yes" name="inserted"/>
      <point x="686" y="693"/>
      <point x="584" y="649"/>
      <point x="526" y="649" type="qcurve" smooth="yes"/>
      <point x="468" y="649"/>
      <point x="366" y="693"/>
      <point x="328.0" y="731.0" type="qcurve" smooth="yes" name="inserted"/>
      <point x="290" y="769"/>
      <point x="246" y="871"/>
    </contour>
    <contour>
      <point x="381" y="929" type="qcurve" smooth="yes"/>
      <point x="381" y="899"/>
      <point x="404" y="846"/>
      <point x="423.5" y="826.5" type="qcurve" smooth="yes" name="inserted"/>
      <point x="443" y="807"/>
      <point x="496" y="784"/>
      <point x="526" y="784" type="qcurve" smooth="yes"/>
      <point x="556" y="784"/>
      <point x="609" y="807"/>
      <point x="628.5" y="826.5" type="qcurve" smooth="yes" name="inserted"/>
      <point x="648" y="846"/>
      <point x="671" y="899"/>
      <point x="671" y="929" type="qcurve" smooth="yes"/>
      <point x="671" y="959"/>
      <point x="648" y="1012"/>
      <point x="628.5" y="1031.5" type="qcurve" smooth="yes" name="inserted"/>
      <point x="609" y="1051"/>
      <point x="556" y="1074"/>
      <point x="526" y="1074" type="qcurve" smooth="yes"/>
      <point x="496" y="1074"/>
      <point x="443" y="1051"/>
      <point x="423.5" y="1031.5" type="qcurve" smooth="yes" name="inserted"/>
      <point x="404" y="1012"/>
      <point x="381" y="959"/>
    </contour>
  </outline>
</glyph>
<glyph name="ordmasculine" format="2">
  <advance width="1228"/>
  <unicode hex="00BA"/>
  <outline>
    <contour>
      <point x="235" y="837" type="qcurve" smooth="yes"/>
      <point x="235" y="918"/>
      <point x="293" y="1054"/>
      <point x="343.5" y="1103.5" type="qcurve" smooth="yes" name="inserted"/>
      <point x="394" y="1153"/>
      <point x="533" y="1209"/>
      <point x="614" y="1209" type="qcurve" smooth="yes"/>
      <point x="695" y="1209"/>
      <point x="834" y="1153"/>
      <point x="884.5" y="1103.5" type="qcurve" smooth="yes" name="inserted"/>
      <point x="935" y="1054"/>
      <point x="993" y="918"/>
      <point x="993" y="837" type="qcurve" smooth="yes"/>
      <point x="993" y="756"/>
      <point x="935" y="619"/>
      <point x="884.5" y="569.5" type="qcurve" smooth="yes" name="inserted"/>
      <point x="834" y="520"/>
      <point x="695" y="465"/>
      <point x="614" y="465" type="qcurve" smooth="yes"/>
      <point x="533" y="465"/>
      <point x="394" y="520"/>
      <point x="343.5" y="569.5" type="qcurve" smooth="yes" name="inserted"/>
      <point x="293" y="619"/>
      <point x="235" y="756"/>
    </contour>
    <contour>
      <point x="375" y="837" type="qcurve" smooth="yes"/>
      <point x="375" y="784"/>
      <point x="409" y="696"/>
      <point x="440.5" y="664.5" type="qcurve" smooth="yes" name="inserted"/>
      <point x="472" y="633"/>
      <point x="560" y="597"/>
      <point x="614" y="597" type="qcurve" smooth="yes"/>
      <point x="668" y="597"/>
      <point x="756" y="633"/>
      <point x="787.5" y="664.5" type="qcurve" smooth="yes" name="inserted"/>
      <point x="819" y="696"/>
      <point x="853" y="784"/>
      <point x="853" y="837" type="qcurve" smooth="yes"/>
      <point x="853" y="889"/>
      <point x="819" y="977"/>
      <point x="787.5" y="1009.0" type="qcurve" smooth="yes" name="inserted"/>
      <point x="756" y="1041"/>
      <point x="668" y="1077"/>
      <point x="614" y="1077" type="qcurve" smooth="yes"/>
      <point x="560" y="1077"/>
      <point x="472" y="1041"/>
      <point x="440.5" y="1009.0" type="qcurve" smooth="yes" name="inserted"/>
      <point x="409" y="977"/>
      <point x="375" y="889"/>
    </contour>
  </outline>
</glyph>
<glyph name="questiondown" format="2">
  <advance width="1228"/>
  <unicode hex="00BF"/>
  <outline>
    <contour>
      <point x="974" y="125" type="line" smooth="yes"/>
      <point x="974.0" y="104.5" name="inserted"/>
      <point x="961.5" y="76.5"/>
      <point x="949" y="69" type="qcurve" smooth="yes"/>
      <point x="873" y="23"/>
      <point x="702" y="-22"/>
      <point x="610" y="-22" type="qcurve" smooth="yes"/>
      <point x="527" y="-22"/>
      <point x="396" y="24"/>
      <point x="351.0" y="65.0" type="qcurve" smooth="yes" name="inserted"/>
      <point x="306" y="106"/>
      <point x="258" y="222"/>
      <point x="258" y="291" type="qcurve" smooth="yes"/>
      <point x="258" y="358"/>
      <point x="299" y="459"/>
      <point x="339.0" y="499.0" type="qcurve" smooth="yes" name="inserted"/>
      <point x="379" y="539"/>
      <point x="498" y="604"/>
      <point x="575" y="636" type="qcurve"/>
      <point x="585" y="777" type="line" smooth="yes"/>
      <point x="587" y="800"/>
      <point x="622" y="828"/>
      <point x="654" y="828" type="qcurve" smooth="yes"/>
      <point x="686" y="828"/>
      <point x="721" y="800"/>
      <point x="723" y="777" type="qcurve" smooth="yes"/>
      <point x="733" y="582" type="line" smooth="yes"/>
      <point x="734" y="562"/>
      <point x="720" y="538"/>
      <point x="703" y="531" type="qcurve" smooth="yes"/>
      <point x="634" y="503" type="line" smooth="yes"/>
      <point x="577" y="480"/>
      <point x="495" y="436"/>
      <point x="468.0" y="411.5" type="qcurve" smooth="yes" name="inserted"/>
      <point x="441" y="387"/>
      <point x="416" y="328"/>
      <point x="416" y="291" type="qcurve" smooth="yes"/>
      <point x="416" y="218"/>
      <point x="515" y="126"/>
      <point x="609" y="126" type="qcurve" smooth="yes"/>
      <point x="670" y="126"/>
      <point x="777" y="143"/>
      <point x="824" y="163" type="qcurve"/>
      <point x="824" y="252" type="line" smooth="yes"/>
      <point x="824" y="287"/>
      <point x="857" y="317"/>
      <point x="899" y="317" type="qcurve" smooth="yes"/>
      <point x="941" y="317"/>
      <point x="974" y="287"/>
      <point x="974" y="252" type="qcurve" smooth="yes"/>
    </contour>
    <contour>
      <point x="792" y="1071" type="qcurve" smooth="yes"/>
      <point x="792" y="1042"/>
      <point x="770" y="992"/>
      <point x="751.5" y="973.5" type="qcurve" smooth="yes" name="inserted"/>
      <point x="733" y="955"/>
      <point x="682" y="933"/>
      <point x="654" y="933" type="qcurve" smooth="yes"/>
      <point x="625" y="933"/>
      <point x="575" y="955"/>
      <point x="556.5" y="973.5" type="qcurve" smooth="yes" name="inserted"/>
      <point x="538" y="992"/>
      <point x="516" y="1042"/>
      <point x="516" y="1071" type="qcurve" smooth="yes"/>
      <point x="516" y="1099"/>
      <point x="538" y="1150"/>
      <point x="556.5" y="1168.5" type="qcurve" smooth="yes" name="inserted"/>
      <point x="575" y="1187"/>
      <point x="625" y="1209"/>
      <point x="654" y="1209" type="qcurve" smooth="yes"/>
      <point x="682" y="1209"/>
      <point x="733" y="1187"/>
      <point x="751.5" y="1168.5" type="qcurve" smooth="yes" name="inserted"/>
      <point x="770" y="1150"/>
      <point x="792" y="1099"/>
    </contour>
  </outline>
</glyph>
<glyph name="Thorn" format="2">
  <advance width="1228"/>
  <unicode hex="00DE"/>
  <outline>
    <contour>
      <point x="329" y="1051" type="line"/>
      <point x="173" y="1051" type="line" smooth="yes"/>
      <point x="139" y="1051"/>
      <point x="110" y="1081"/>
      <point x="110" y="1119" type="qcurve" smooth="yes"/>
      <point x="110" y="1157"/>
      <point x="139" y="1187"/>
      <point x="173" y="1187" type="qcurve" smooth="yes"/>
      <point x="695" y="1187" type="line" smooth="yes"/>
      <point x="729" y="1187"/>
      <point x="758" y="1157"/>
      <point x="758" y="1119" type="qcurve" smooth="yes"/>
      <point x="758" y="1081"/>
      <point x="729" y="1051"/>
      <point x="695" y="1051" type="qcurve" smooth="yes"/>
      <point x="479" y="1051" type="line"/>
      <point x="479" y="927" type="line"/>
      <point x="710" y="927" type="line" smooth="yes"/>
      <point x="800" y="927"/>
      <point x="936" y="876"/>
      <point x="981.0" y="832.0" type="qcurve" smooth="yes" name="inserted"/>
      <point x="1026" y="788"/>
      <point x="1072" y="668"/>
      <point x="1072" y="598" type="qcurve" smooth="yes"/>
      <point x="1072" y="529"/>
      <point x="1026" y="410"/>
      <point x="981.0" y="366.5" type="qcurve" smooth="yes" name="inserted"/>
      <point x="936" y="323"/>
      <point x="800" y="273"/>
      <point x="710" y="273" type="qcurve" smooth="yes"/>
      <point x="479" y="273" type="line"/>
      <point x="479" y="136" type="line"/>
      <point x="695" y="136" type="line" smooth="yes"/>
      <point x="729" y="136"/>
      <point x="758" y="106"/>
      <point x="758" y="68" type="qcurve" smooth="yes"/>
      <point x="758" y="30"/>
      <point x="729" y="0"/>
      <point x="695" y="0" type="qcurve" smooth="yes"/>
      <point x="173" y="0" type="line" smooth="yes"/>
      <point x="139" y="0"/>
      <point x="110" y="30"/>
      <point x="110" y="68" type="qcurve" smooth="yes"/>
      <point x="110" y="106"/>
      <point x="139" y="136"/>
      <point x="173" y="136" type="qcurve" smooth="yes"/>
      <point x="329" y="136" type="line"/>
    </contour>
    <contour>
      <point x="689" y="409" type="line" smooth="yes"/>
      <point x="800" y="409"/>
      <point x="914" y="508"/>
      <point x="914" y="598" type="qcurve" smooth="yes"/>
      <point x="914" y="640"/>
      <point x="888" y="710"/>
      <point x="860.5" y="736.0" type="qcurve" smooth="yes" name="inserted"/>
      <point x="833" y="762"/>
      <point x="748" y="791"/>
      <point x="689" y="791" type="qcurve" smooth="yes"/>
      <point x="479" y="791" type="line"/>
      <point x="479" y="409" type="line"/>
    </contour>
  </outline>
</glyph>
<glyph name="divide" format="2">
  <advance width="1228"/>
  <unicode hex="00F7"/>
  <outline>
    <contour>
      <point x="494" y="925" type="qcurve" smooth="yes"/>
      <point x="494" y="950"/>
      <point x="513" y="993"/>
      <point x="529.0" y="1009.5" type="qcurve" smooth="yes" name="inserted"/>
      <point x="545" y="1026"/>
      <point x="588" y="1045"/>
      <point x="613" y="1045" type="qcurve" smooth="yes"/>
      <point x="638" y="1045"/>
      <point x="681" y="1026"/>
      <point x="697.5" y="1009.5" type="qcurve" smooth="yes" name="inserted"/>
      <point x="714" y="993"/>
      <point x="733" y="950"/>
      <point x="733" y="925" type="qcurve" smooth="yes"/>
      <point x="733" y="900"/>
      <point x="714" y="857"/>
      <point x="697.5" y="841.0" type="qcurve" smooth="yes" name="inserted"/>
      <point x="681" y="825"/>
      <point x="638" y="806"/>
      <point x="613" y="806" type="qcurve" smooth="yes"/>
      <point x="588" y="806"/>
      <point x="545" y="825"/>
      <point x="529.0" y="841.0" type="qcurve" smooth="yes" name="inserted"/>
      <point x="513" y="857"/>
      <point x="494" y="900"/>
    </contour>
    <contour>
      <point x="494" y="239" type="qcurve" smooth="yes"/>
      <point x="494" y="264"/>
      <point x="513" y="307"/>
      <point x="529.0" y="323.5" type="qcurve" smooth="yes" name="inserted"/>
      <point x="545" y="340"/>
      <point x="588" y="359"/>
      <point x="613" y="359" type="qcurve" smooth="yes"/>
      <point x="638" y="359"/>
      <point x="681" y="340"/>
      <point x="697.5" y="323.5" type="qcurve" smooth="yes" name="inserted"/>
      <point x="714" y="307"/>
      <point x="733" y="264"/>
      <point x="733" y="239" type="qcurve" smooth="yes"/>
      <point x="733" y="214"/>
      <point x="714" y="171"/>
      <point x="697.5" y="155.0" type="qcurve" smooth="yes" name="inserted"/>
      <point x="681" y="139"/>
      <point x="638" y="120"/>
      <point x="613" y="120" type="qcurve" smooth="yes"/>
      <point x="588" y="120"/>
      <point x="545" y="139"/>
      <point x="529.0" y="155.0" type="qcurve" smooth="yes" name="inserted"/>
      <point x="513" y="171"/>
      <point x="494" y="214"/>
    </contour>
    <contour>
      <point x="995" y="650" type="line" smooth="yes"/>
      <point x="1029" y="650"/>
      <point x="1058" y="620"/>
      <point x="1058" y="582" type="qcurve" smooth="yes"/>
      <point x="1058" y="544"/>
      <point x="1029" y="514"/>
      <point x="995" y="514" type="qcurve" smooth="yes"/>
      <point x="233" y="514" type="line" smooth="yes"/>
      <point x="199" y="514"/>
      <point x="170" y="544"/>
      <point x="170" y="582" type="qcurve" smooth="yes"/>
      <point x="170" y="620"/>
      <point x="199" y="650"/>
      <point x="233" y="650" type="qcurve" smooth="yes"/>
    </contour>
  </outline>
</glyph>
<glyph name="aogonek" format="2">
  <advance width="1228"/>
  <unicode hex="0105"/>
  <outline>
    <contour>
      <point x="1095" y="136" type="line" smooth="yes"/>
      <point x="1129" y="136"/>
      <point x="1158" y="106"/>
      <point x="1158" y="68" type="qcurve" smooth="yes"/>
      <point x="1158" y="30"/>
      <point x="1129" y="0"/>
      <point x="1095" y="0" type="qcurve" smooth="yes"/>
      <point x="1073" y="0" type="line"/>
      <point x="984" y="-83"/>
      <point x="907" y="-206"/>
      <point x="907" y="-261" type="qcurve" smooth="yes"/>
      <point x="907" y="-298"/>
      <point x="950" y="-336"/>
      <point x="984" y="-336" type="qcurve" smooth="yes"/>
      <point x="1013" y="-336"/>
      <point x="1071" y="-331"/>
      <point x="1097" y="-326" type="qcurve" smooth="yes"/>
      <point x="1117" y="-323"/>
      <point x="1143" y="-346"/>
      <point x="1147" y="-374" type="qcurve" smooth="yes"/>
      <point x="1152" y="-405"/>
      <point x="1137" y="-438"/>
      <point x="1115" y="-446" type="qcurve" smooth="yes"/>
      <point x="1080" y="-458"/>
      <point x="998" y="-472"/>
      <point x="951" y="-472" type="qcurve" smooth="yes"/>
      <point x="857" y="-472"/>
      <point x="751" y="-369"/>
      <point x="751" y="-281" type="qcurve" smooth="yes"/>
      <point x="751" y="-198"/>
      <point x="854" y="-51"/>
      <point x="939" y="20" type="qcurve"/>
      <point x="910" y="35"/>
      <point x="867" y="88"/>
      <point x="859" y="128" type="qcurve"/>
      <point x="780" y="59"/>
      <point x="590" y="-22"/>
      <point x="479" y="-22" type="qcurve" smooth="yes"/>
      <point x="404" y="-22"/>
      <point x="278" y="17"/>
      <point x="232.0" y="54.5" type="qcurve" smooth="yes" name="inserted"/>
      <point x="186" y="92"/>
      <point x="135" y="200"/>
      <point x="135" y="270" type="qcurve" smooth="yes"/>
      <point x="135" y="354"/>
      <point x="200" y="472"/>
      <point x="255.5" y="508.5" type="qcurve" smooth="yes" name="inserted"/>
      <point x="311" y="545"/>
      <point x="458" y="579"/>
      <point x="540" y="579" type="qcurve" smooth="yes"/>
      <point x="621" y="579"/>
      <point x="773" y="553"/>
      <point x="844" y="528" type="qcurve"/>
      <point x="844" y="613" type="line" smooth="yes"/>
      <point x="844" y="710"/>
      <point x="751" y="801"/>
      <point x="638" y="801" type="qcurve" smooth="yes"/>
      <point x="557" y="801"/>
      <point x="394" y="758"/>
      <point x="331" y="713" type="qcurve" smooth="yes"/>
      <point x="308" y="696"/>
      <point x="260" y="706"/>
      <point x="238" y="737" type="qcurve" smooth="yes"/>
      <point x="216" y="768"/>
      <point x="225" y="817"/>
      <point x="248" y="834" type="qcurve" smooth="yes"/>
      <point x="287" y="863"/>
      <point x="381" y="906"/>
      <point x="431.5" y="919.5" type="qcurve" smooth="yes" name="inserted"/>
      <point x="482" y="933"/>
      <point x="587" y="946"/>
      <point x="638" y="946" type="qcurve" smooth="yes"/>
      <point x="817" y="946"/>
      <point x="994" y="778"/>
      <point x="994" y="613" type="qcurve" smooth="yes"/>
      <point x="994" y="215" type="line" smooth="yes"/>
      <point x="994.0" y="175.5" name="inserted"/>
      <point x="1027.0" y="136.0"/>
      <point x="1060" y="136" type="qcurve" smooth="yes"/>
    </contour>
    <contour>
      <point x="844" y="393" type="line"/>
      <point x="775" y="416"/>
      <point x="619" y="438"/>
      <point x="541" y="438" type="qcurve" smooth="yes"/>
      <point x="487" y="438"/>
      <point x="396" y="420"/>
      <point x="363.0" y="400.5" type="qcurve" smooth="yes" name="inserted"/>
      <point x="330" y="381"/>
      <point x="293" y="318"/>
      <point x="293" y="273" type="qcurve" smooth="yes"/>
      <point x="293" y="200"/>
      <point x="394" y="119"/>
      <point x="485" y="119" type="qcurve" smooth="yes"/>
      <point x="592" y="119"/>
      <point x="770" y="208"/>
      <point x="844" y="284" type="qcurve"/>
    </contour>
  </outline>
</glyph>
<glyph name="IJ" format="2">
  <advance width="1228"/>
  <unicode hex="0132"/>
  <outline>
    <contour>
      <point x="179" y="1051" type="line"/>
      <point x="93" y="1051" type="line" smooth="yes"/>
      <point x="59" y="1051"/>
      <point x="30" y="1081"/>
      <point x="30" y="1119" type="qcurve" smooth="yes"/>
      <point x="30" y="1157"/>
      <point x="59" y="1187"/>
      <point x="93" y="1187" type="qcurve" smooth="yes"/>
      <point x="415" y="1187" type="line" smooth="yes"/>
      <point x="449" y="1187"/>
      <point x="478" y="1157"/>
      <point x="478" y="1119" type="qcurve" smooth="yes"/>
      <point x="478" y="1081"/>
      <point x="449" y="1051"/>
      <point x="415" y="1051" type="qcurve" smooth="yes"/>
      <point x="329" y="1051" type="line"/>
      <point x="329" y="136" type="line"/>
      <point x="425" y="136" type="line" smooth="yes"/>
      <point x="459" y="136"/>
      <point x="488" y="106"/>
      <point x="488" y="68" type="qcurve" smooth="yes"/>
      <point x="488" y="30"/>
      <point x="459" y="0"/>
      <point x="425" y="0" type="qcurve" smooth="yes"/>
      <point x="83" y="0" type="line" smooth="yes"/>
      <point x="49" y="0"/>
      <point x="20" y="30"/>
      <point x="20" y="68" type="qcurve" smooth="yes"/>
      <point x="20" y="106"/>
      <point x="49" y="136"/>
      <point x="83" y="136" type="qcurve" smooth="yes"/>
      <point x="179" y="136" type="line"/>
    </contour>
    <contour>
      <point x="783" y="1051" type="line" smooth="yes"/>
      <point x="749" y="1051"/>
      <point x="720" y="1081"/>
      <point x="720" y="1119" type="qcurve" smooth="yes"/>
      <point x="720" y="1157"/>
      <point x="749" y="1187"/>
      <point x="783" y="1187" type="qcurve" smooth="yes"/>
      <point x="1145" y="1187" type="line" smooth="yes"/>
      <point x="1179" y="1187"/>
      <point x="1208" y="1157"/>
      <point x="1208" y="1119" type="qcurve" smooth="yes"/>
      <point x="1208" y="1081"/>
      <point x="1179" y="1051"/>
      <point x="1145" y="1051" type="qcurve" smooth="yes"/>
      <point x="1074" y="1051" type="line"/>
      <point x="1074" y="233" type="line" smooth="yes"/>
      <point x="1074" y="173"/>
      <point x="1043" y="79"/>
      <point x="1010.0" y="46.0" type="qcurve" smooth="yes" name="inserted"/>
      <point x="977" y="13"/>
      <point x="875" y="-22"/>
      <point x="804" y="-22" type="qcurve" smooth="yes"/>
      <point x="735" y="-22"/>
      <point x="615" y="34"/>
      <point x="571" y="79" type="qcurve" smooth="yes"/>
      <point x="563.0" y="87.0" name="inserted"/>
      <point x="555.0" y="112.5"/>
      <point x="555" y="130" type="qcurve" smooth="yes"/>
      <point x="555" y="415" type="line" smooth="yes"/>
      <point x="555" y="450"/>
      <point x="588" y="480"/>
      <point x="630" y="480" type="qcurve" smooth="yes"/>
      <point x="672" y="480"/>
      <point x="705" y="450"/>
      <point x="705" y="415" type="qcurve" smooth="yes"/>
      <point x="705" y="161" type="line"/>
      <point x="725" y="142"/>
      <point x="776" y="126"/>
      <point x="805" y="126" type="qcurve" smooth="yes"/>
      <point x="868" y="126"/>
      <point x="924" y="191"/>
      <point x="924" y="263" type="qcurve" smooth="yes"/>
      <point x="924" y="1051" type="line"/>
    </contour>
  </outline>
</glyph>
<glyph name="dotlessj" format="2">
  <advance width="1228"/>
  <unicode hex="0237"/>
  <outline>
    <contour>
      <point x="753" y="788" type="line"/>
      <point x="330" y="788" type="line" smooth="yes"/>
      <point x="296" y="788"/>
      <point x="267" y="818"/>
      <point x="267" y="856" type="qcurve" smooth="yes"/>
      <point x="267" y="894"/>
      <point x="296" y="924"/>
      <point x="330" y="924" type="qcurve" smooth="yes"/>
      <point x="840" y="924" type="line" smooth="yes"/>
      <point x="874" y="924"/>
      <point x="903" y="894"/>
      <point x="903" y="856" type="qcurve" smooth="yes"/>
      <point x="903" y="-62" type="line" smooth="yes"/>
      <point x="903" y="-148"/>
      <point x="866" y="-280"/>
      <point x="826.5" y="-324.5" type="qcurve" smooth="yes" name="inserted"/>
      <point x="787" y="-369"/>
      <point x="663" y="-415"/>
      <point x="576" y="-415" type="qcurve" smooth="yes"/>
      <point x="533" y="-415"/>
      <point x="440" y="-398"/>
      <point x="394.0" y="-383.0" type="qcurve" smooth="yes" name="inserted"/>
      <point x="348" y="-368"/>
      <point x="260" y="-327"/>
      <point x="223" y="-303" type="qcurve" smooth="yes"/>
      <point x="198" y="-287"/>
      <point x="184" y="-242"/>
      <point x="203" y="-206" type="qcurve" smooth="yes"/>
      <point x="222" y="-170"/>
      <point x="269" y="-155"/>
      <point x="292" y="-170" type="qcurve" smooth="yes"/>
      <point x="358" y="-213"/>
      <point x="506" y="-269"/>
      <point x="576" y="-269" type="qcurve" smooth="yes"/>
      <point x="626" y="-269"/>
      <point x="694" y="-242"/>
      <point x="714.5" y="-214.5" type="qcurve" smooth="yes" name="inserted"/>
      <point x="735" y="-187"/>
      <point x="753" y="-104"/>
      <point x="753" y="-49" type="qcurve" smooth="yes"/>
    </contour>
  </outline>
</glyph>
<glyph name="circumflex" format="2">
  <advance width="1228"/>
  <unicode hex="02C6"/>
  <outline>
    <contour>
      <point x="335" y="1039" type="line" smooth="yes"/>
      <point x="318" y="1029"/>
      <point x="286" y="1044"/>
      <point x="276" y="1060" type="qcurve" smooth="yes"/>
      <point x="266" y="1076"/>
      <point x="266" y="1112"/>
      <point x="282" y="1126" type="qcurve" smooth="yes"/>
      <point x="559" y="1358" type="line" smooth="yes"/>
      <point x="570.0" y="1367.0" name="inserted"/>
      <point x="597.5" y="1376.0"/>
      <point x="614" y="1376" type="qcurve" smooth="yes"/>
      <point x="630.0" y="1376.0" name="inserted"/>
      <point x="657.5" y="1367.0"/>
      <point x="669" y="1358" type="qcurve" smooth="yes"/>
      <point x="946" y="1126" type="line" smooth="yes"/>
      <point x="962" y="1112"/>
      <point x="962" y="1076"/>
      <point x="952" y="1060" type="qcurve" smooth="yes"/>
      <point x="942" y="1044"/>
      <point x="910" y="1029"/>
      <point x="893" y="1039" type="qcurve" smooth="yes"/>
      <point x="614" y="1198" type="line"/>
    </contour>
  </outline>
</glyph>
<glyph name="emdash" format="2">
  <advance width="1228"/>
  <unicode hex="2014"/>
  <outline>
    <contour>
      <point x="1195" y="650" type="line" smooth="yes"/>
      <point x="1229" y="650"/>
      <point x="1258" y="620"/>
      <point x="1258" y="582" type="qcurve" smooth="yes"/>
      <point x="1258" y="544"/>
      <point x="1229" y="514"/>
      <point x="1195" y="514" type="qcurve" smooth="yes"/>
      <point x="33" y="514" type="line" smooth="yes"/>
      <point x="-1" y="514"/>
      <point x="-30" y="544"/>
      <point x="-30" y="582" type="qcurve" smooth="yes"/>
      <point x="-30" y="620"/>
      <point x="-1" y="650"/>
      <point x="33" y="650" type="qcurve" smooth="yes"/>
    </contour>
  </outline>
</glyph>
<glyph name="quoteright" format="2">
  <advance width="1228"/>
  <unicode hex="2019"/>
  <outline>
    <contour>
      <point x="575" y="697" type="line" smooth="yes"/>
      <point x="564.0" y="675.5" name="inserted"/>
      <point x="527.0" y="654.0"/>
      <point x="501" y="654" type="qcurve" smooth="yes"/>
      <point x="467" y="654"/>
      <point x="431" y="691"/>
      <point x="439" y="723" type="qcurve" smooth="yes"/>
      <point x="540" y="1169" type="line" smooth="yes"/>
      <point x="544.5" y="1189.0" name="inserted"/>
      <point x="570.5" y="1209.0"/>
      <point x="592" y="1209" type="qcurve" smooth="yes"/>
      <point x="767" y="1209" type="line" smooth="yes"/>
      <point x="792" y="1209"/>
      <point x="808" y="1172"/>
      <point x="795" y="1146" type="qcurve" smooth="yes"/>
    </contour>
  </outline>
</glyph>
<glyph name="daggerdbl" format="2">
  <advance width="1228"/>
  <unicode hex="2021"/>
  <outline>
    <contour>
      <point x="353" y="456" type="line" smooth="yes"/>
      <point x="319" y="456"/>
      <point x="290" y="486"/>
      <point x="290" y="524" type="qcurve" smooth="yes"/>
      <point x="290" y="562"/>
      <point x="319" y="592"/>
      <point x="353" y="592" type="qcurve" smooth="yes"/>
      <point x="546" y="592" type="line"/>
      <point x="546" y="838" type="line"/>
      <point x="353" y="838" type="line" smooth="yes"/>
      <point x="319" y="838"/>
      <point x="290" y="868"/>
      <point x="290" y="906" type="qcurve" smooth="yes"/>
      <point x="290" y="944"/>
      <point x="319" y="974"/>
      <point x="353" y="974" type="qcurve" smooth="yes"/>
      <point x="546" y="974" type="line"/>
      <point x="546" y="1146" type="line" smooth="yes"/>
      <point x="546" y="1180"/>
      <point x="576" y="1209"/>
      <point x="614" y="1209" type="qcurve" smooth="yes"/>
      <point x="652" y="1209"/>
      <point x="682" y="1180"/>
      <point x="682" y="1146" type="qcurve" smooth="yes"/>
      <point x="682" y="974" type="line"/>
      <point x="875" y="974" type="line" smooth="yes"/>
      <point x="909" y="974"/>
      <point x="938" y="944"/>
      <point x="938" y="906" type="qcurve" smooth="yes"/>
      <point x="938" y="868"/>
      <point x="909" y="838"/>
      <point x="875" y="838" type="qcurve" smooth="yes"/>
      <point x="682" y="838" type="line"/>
      <point x="682" y="592" type="line"/>
      <point x="875" y="592" type="line" smooth="yes"/>
      <point x="909" y="592"/>
      <point x="938" y="562"/>
      <point x="938" y="524" type="qcurve" smooth="yes"/>
      <point x="938" y="486"/>
      <point x="909" y="456"/>
      <point x="875" y="456" type="qcurve" smooth="yes"/>
      <point x="682" y="456" type="line"/>
      <point x="682" y="284" type="line" smooth="yes"/>
      <point x="682" y="250"/>
      <point x="652" y="221"/>
      <point x="614" y="221" type="qcurve" smooth="yes"/>
      <point x="576" y="221"/>
      <point x="546" y="250"/>
      <point x="546" y="284" type="qcurve" smooth="yes"/>
      <point x="546" y="456" type="line"/>
    </contour>
  </outline>
</glyph>
<glyph name="bullet" format="2">
  <advance width="1228"/>
  <unicode hex="2022"/>
  <outline>
    <contour>
      <point x="350" y="599" type="qcurve" smooth="yes"/>
      <point x="350" y="654"/>
      <point x="391" y="750"/>
      <point x="427.0" y="786.0" type="qcurve" smooth="yes" name="inserted"/>
      <point x="463" y="822"/>
      <point x="559" y="863"/>
      <point x="614" y="863" type="qcurve" smooth="yes"/>
      <point x="669" y="863"/>
      <point x="765" y="822"/>
      <point x="801.0" y="786.0" type="qcurve" smooth="yes" name="inserted"/>
      <point x="837" y="750"/>
      <point x="878" y="654"/>
      <point x="878" y="599" type="qcurve" smooth="yes"/>
      <point x="878" y="544"/>
      <point x="837" y="448"/>
      <point x="801.0" y="412.0" type="qcurve" smooth="yes" name="inserted"/>
      <point x="765" y="376"/>
      <point x="669" y="335"/>
      <point x="614" y="335" type="qcurve" smooth="yes"/>
      <point x="559" y="335"/>
      <point x="463" y="376"/>
      <point x="427.0" y="412.0" type="qcurve" smooth="yes" name="inserted"/>
      <point x="391" y="448"/>
      <point x="350" y="544"/>
    </contour>
  </outline>
</glyph>
<glyph name="guilsinglleft" format="2">
  <advance width="1228"/>
  <unicode hex="2039"/>
  <outline>
    <contour>
      <point x="452" y="548" type="line" smooth="yes"/>
      <point x="445.0" y="560.0" name="inserted"/>
      <point x="445.0" y="584.0"/>
      <point x="452" y="596" type="qcurve" smooth="yes"/>
      <point x="650" y="922" type="line" smooth="yes"/>
      <point x="663" y="943"/>
      <point x="715" y="948"/>
      <point x="740" y="937" type="qcurve" smooth="yes"/>
      <point x="753" y="931"/>
      <point x="775" y="915"/>
      <point x="781.0" y="904.5" type="qcurve" smooth="yes" name="inserted"/>
      <point x="787" y="894"/>
      <point x="788" y="870"/>
      <point x="780" y="857" type="qcurve" smooth="yes"/>
      <point x="606" y="572" type="line"/>
      <point x="780" y="287" type="line" smooth="yes"/>
      <point x="788" y="274"/>
      <point x="787" y="250"/>
      <point x="781.0" y="239.5" type="qcurve" smooth="yes" name="inserted"/>
      <point x="775" y="229"/>
      <point x="753" y="213"/>
      <point x="740" y="207" type="qcurve" smooth="yes"/>
      <point x="715" y="196"/>
      <point x="663" y="201"/>
      <point x="650" y="222" type="qcurve" smooth="yes"/>
    </contour>
  </outline>
</glyph>
<glyph name="franc" format="2">
  <advance width="1228"/>
  <unicode hex="20A3"/>
  <outline>
    <contour>
      <point x="425" y="564" type="line"/>
      <point x="425" y="420" type="line"/>
      <point x="865" y="420" type="line" smooth="yes"/>
      <point x="899" y="420"/>
      <point x="928" y="390"/>
      <point x="928" y="352" type="qcurve" smooth="yes"/>
      <point x="928" y="314"/>
      <point x="899" y="284"/>
      <point x="865" y="284" type="qcurve" smooth="yes"/>
      <point x="425" y="284" type="line"/>
      <point x="425" y="136" type="line"/>
      <point x="657" y="136" type="line" smooth="yes"/>
      <point x="691" y="136"/>
      <point x="720" y="106"/>
      <point x="720" y="68" type="qcurve" smooth="yes"/>
      <point x="720" y="30"/>
      <point x="691" y="0"/>
      <point x="657" y="0" type="qcurve" smooth="yes"/>
      <point x="143" y="0" type="line" smooth="yes"/>
      <point x="109" y="0"/>
      <point x="80" y="30"/>
      <point x="80" y="68" type="qcurve" smooth="yes"/>
      <point x="80" y="106"/>
      <point x="109" y="136"/>
      <point x="143" y="136" type="qcurve" smooth="yes"/>
      <point x="275" y="136" type="line"/>
      <point x="275" y="284" type="line"/>
      <point x="103" y="284" type="line" smooth="yes"/>
      <point x="69" y="284"/>
      <point x="40" y="314"/>
      <point x="40" y="352" type="qcurve" smooth="yes"/>
      <point x="40" y="390"/>
      <point x="69" y="420"/>
      <point x="103" y="420" type="qcurve" smooth="yes"/>
      <point x="275" y="420" type="line"/>
      <point x="275" y="1051" type="line"/>
      <point x="143" y="1051" type="line" smooth="yes"/>
      <point x="109" y="1051"/>
      <point x="80" y="1081"/>
      <point x="80" y="1119" type="qcurve" smooth="yes"/>
      <point x="80" y="1157"/>
      <point x="109" y="1187"/>
      <point x="143" y="1187" type="qcurve" smooth="yes"/>
      <point x="1047" y="1187" type="line" smooth="yes"/>
      <point x="1081" y="1187"/>
      <point x="1110" y="1157"/>
      <point x="1110" y="1119" type="qcurve" smooth="yes"/>
      <point x="1110" y="855" type="line" smooth="yes"/>
      <point x="1110" y="820"/>
      <point x="1077" y="790"/>
      <point x="1035" y="790" type="qcurve" smooth="yes"/>
      <point x="993" y="790"/>
      <point x="960" y="820"/>
      <point x="960" y="855" type="qcurve" smooth="yes"/>
      <point x="960" y="1051" type="line"/>
      <point x="425" y="1051" type="line"/>
      <point x="425" y="700" type="line"/>
      <point x="770" y="700" type="line" smooth="yes"/>
      <point x="804" y="700"/>
      <point x="833" y="670"/>
      <point x="833" y="632" type="qcurve" smooth="yes"/>
      <point x="833" y="594"/>
      <point x="804" y="564"/>
      <point x="770" y="564" type="qcurve" smooth="yes"/>
    </contour>
  </outline>
</glyph>
<glyph name="Euro" format="2">
  <advance width="1228"/>
  <unicode hex="20AC"/>
  <outline>
    <contour>
      <point x="985" y="239" type="qcurve" smooth="yes"/>
      <point x="1005" y="255"/>
      <point x="1053" y="251"/>
      <point x="1075" y="214" type="qcurve" smooth="yes"/>
      <point x="1096" y="179"/>
      <point x="1088" y="128"/>
      <point x="1062" y="109" type="qcurve" smooth="yes"/>
      <point x="967" y="43"/>
      <point x="761" y="-22"/>
      <point x="654" y="-22" type="qcurve" smooth="yes"/>
      <point x="567" y="-22"/>
      <point x="425" y="33"/>
      <point x="370.0" y="84.0" type="qcurve" smooth="yes" name="inserted"/>
      <point x="315" y="135"/>
      <point x="240" y="282"/>
      <point x="220" y="374" type="qcurve"/>
      <point x="123" y="374" type="line" smooth="yes"/>
      <point x="89" y="374"/>
      <point x="60" y="404"/>
      <point x="60" y="442" type="qcurve" smooth="yes"/>
      <point x="60" y="480"/>
      <point x="89" y="510"/>
      <point x="123" y="510" type="qcurve" smooth="yes"/>
      <point x="203" y="510" type="line"/>
      <point x="199" y="551"/>
      <point x="200" y="646"/>
      <point x="204" y="684" type="qcurve"/>
      <point x="123" y="684" type="line" smooth="yes"/>
      <point x="89" y="684"/>
      <point x="60" y="714"/>
      <point x="60" y="752" type="qcurve" smooth="yes"/>
      <point x="60" y="790"/>
      <point x="89" y="820"/>
      <point x="123" y="820" type="qcurve" smooth="yes"/>
      <point x="223" y="820" type="line"/>
      <point x="244" y="910"/>
      <point x="322" y="1054"/>
      <point x="376.5" y="1104.5" type="qcurve" smooth="yes" name="inserted"/>
      <point x="431" y="1155"/>
      <point x="571" y="1209"/>
      <point x="654" y="1209" type="qcurve" smooth="yes"/>
      <point x="741" y="1209"/>
      <point x="876" y="1144"/>
      <point x="924" y="1087" type="qcurve"/>
      <point x="924" y="1144" type="line" smooth="yes"/>
      <point x="924" y="1179"/>
      <point x="957" y="1209"/>
      <point x="999" y="1209" type="qcurve" smooth="yes"/>
      <point x="1041" y="1209"/>
      <point x="1074" y="1179"/>
      <point x="1074" y="1144" type="qcurve" smooth="yes"/>
      <point x="1074" y="814" type="line" smooth="yes"/>
      <point x="1074" y="779"/>
      <point x="1041" y="749"/>
      <point x="999" y="749" type="qcurve" smooth="yes"/>
      <point x="957" y="749"/>
      <point x="924" y="779"/>
      <point x="924" y="814" type="qcurve" smooth="yes"/>
      <point x="924" y="863"/>
      <point x="891" y="953"/>
      <point x="858.5" y="987.0" type="qcurve" smooth="yes" name="inserted"/>
      <point x="826" y="1021"/>
      <point x="729" y="1061"/>
      <point x="664" y="1061" type="qcurve" smooth="yes"/>
      <point x="560" y="1061"/>
      <point x="419" y="935"/>
      <point x="385" y="820" type="qcurve"/>
      <point x="675" y="820" type="line" smooth="yes"/>
      <point x="709" y="820"/>
      <point x="738" y="790"/>
      <point x="738" y="752" type="qcurve" smooth="yes"/>
      <point x="738" y="714"/>
      <point x="709" y="684"/>
      <point x="675" y="684" type="qcurve" smooth="yes"/>
      <point x="362" y="684" type="line"/>
      <point x="358" y="642"/>
      <point x="357" y="552"/>
      <point x="361" y="510" type="qcurve"/>
      <point x="675" y="510" type="line" smooth="yes"/>
      <point x="709" y="510"/>
      <point x="738" y="480"/>
      <point x="738" y="442" type="qcurve" smooth="yes"/>
      <point x="738" y="404"/>
      <point x="709" y="374"/>
      <point x="675" y="374" type="qcurve" smooth="yes"/>
      <point x="381" y="374" type="line"/>
      <point x="412" y="256"/>
      <point x="548" y="126"/>
      <point x="654" y="126" type="qcurve" smooth="yes"/>
      <point x="746" y="126"/>
      <point x="913" y="183"/>
    </contour>
  </outline>
</glyph>
<glyph name="Delta" format="2">
  <advance width="1228"/>
  <unicode hex="2206"/>
  <outline>
    <contour>
      <point x="514" y="1144" type="line" smooth="yes"/>
      <point x="527" y="1179"/>
      <point x="577" y="1209"/>
      <point x="617" y="1209" type="qcurve" smooth="yes"/>
      <point x="657" y="1209"/>
      <point x="706" y="1179"/>
      <point x="718" y="1144" type="qcurve" smooth="yes"/>
      <point x="1064" y="136" type="line"/>
      <point x="1145" y="136" type="line" smooth="yes"/>
      <point x="1179" y="136"/>
      <point x="1208" y="106"/>
      <point x="1208" y="68" type="qcurve" smooth="yes"/>
      <point x="1208" y="30"/>
      <point x="1179" y="0"/>
      <point x="1145" y="0" type="qcurve" smooth="yes"/>
      <point x="83" y="0" type="line" smooth="yes"/>
      <point x="49" y="0"/>
      <point x="20" y="30"/>
      <point x="20" y="68" type="qcurve" smooth="yes"/>
      <point x="20" y="106"/>
      <point x="49" y="136"/>
      <point x="83" y="136" type="qcurve" smooth="yes"/>
      <point x="163" y="136" type="line"/>
    </contour>
    <contour>
      <point x="907" y="136" type="line"/>
      <point x="616" y="1022" type="line"/>
      <point x="321" y="136" type="line"/>
    </contour>
  </outline>
</glyph>
<glyph name="approxequal" format="2">
  <advance width="1228"/>
  <unicode hex="2248"/>
  <outline>
    <contour>
      <point x="238" y="690" type="qcurve" smooth="yes"/>
      <point x="221" y="677"/>
      <point x="182" y="697"/>
      <point x="168" y="721" type="qcurve" smooth="yes"/>
      <point x="154" y="744"/>
      <point x="153" y="787"/>
      <point x="170" y="801" type="qcurve" smooth="yes"/>
      <point x="234" y="857"/>
      <point x="354" y="900"/>
      <point x="412" y="900" type="qcurve" smooth="yes"/>
      <point x="466" y="900"/>
      <point x="569" y="873"/>
      <point x="619.5" y="857.0" type="qcurve" smooth="yes" name="inserted"/>
      <point x="670" y="841"/>
      <point x="770" y="814"/>
      <point x="820" y="814" type="qcurve" smooth="yes"/>
      <point x="862" y="814"/>
      <point x="946" y="840"/>
      <point x="990" y="872" type="qcurve" smooth="yes"/>
      <point x="1007" y="885"/>
      <point x="1046" y="865"/>
      <point x="1060" y="841" type="qcurve" smooth="yes"/>
      <point x="1074" y="818"/>
      <point x="1075" y="775"/>
      <point x="1058" y="761" type="qcurve" smooth="yes"/>
      <point x="993" y="705"/>
      <point x="873" y="662"/>
      <point x="816" y="662" type="qcurve" smooth="yes"/>
      <point x="762" y="662"/>
      <point x="659" y="689"/>
      <point x="608.5" y="705.0" type="qcurve" smooth="yes" name="inserted"/>
      <point x="558" y="721"/>
      <point x="458" y="748"/>
      <point x="408" y="748" type="qcurve" smooth="yes"/>
      <point x="366" y="748"/>
      <point x="282" y="722"/>
    </contour>
    <contour>
      <point x="238" y="290" type="qcurve" smooth="yes"/>
      <point x="221" y="277"/>
      <point x="182" y="297"/>
      <point x="168" y="321" type="qcurve" smooth="yes"/>
      <point x="154" y="344"/>
      <point x="153" y="387"/>
      <point x="170" y="401" type="qcurve" smooth="yes"/>
      <point x="234" y="457"/>
      <point x="354" y="500"/>
      <point x="412" y="500" type="qcurve" smooth="yes"/>
      <point x="466" y="500"/>
      <point x="569" y="473"/>
      <point x="619.5" y="457.0" type="qcurve" smooth="yes" name="inserted"/>
      <point x="670" y="441"/>
      <point x="770" y="414"/>
      <point x="820" y="414" type="qcurve" smooth="yes"/>
      <point x="862" y="414"/>
      <point x="946" y="440"/>
      <point x="990" y="472" type="qcurve" smooth="yes"/>
      <point x="1007" y="485"/>
      <point x="1046" y="465"/>
      <point x="1060" y="441" type="qcurve" smooth="yes"/>
      <point x="1074" y="418"/>
      <point x="1075" y="375"/>
      <point x="1058" y="361" type="qcurve" smooth="yes"/>
      <point x="993" y="305"/>
      <point x="873" y="262"/>
      <point x="816" y="262" type="qcurve" smooth="yes"/>
      <point x="762" y="262"/>
      <point x="659" y="289"/>
      <point x="608.5" y="305.0" type="qcurve" smooth="yes" name="inserted"/>
      <point x="558" y="321"/>
      <point x="458" y="348"/>
      <point x="408" y="348" type="qcurve" smooth="yes"/>
      <point x="366" y="348"/>
      <point x="282" y="322"/>
    </contour>
  </outline>
</glyph>
<glyph name="greaterequal" format="2">
  <advance width="1228"/>
  <unicode hex="2265"/>
  <outline>
    <contour>
      <point x="995" y="250" type="line" smooth="yes"/>
      <point x="1029" y="250"/>
      <point x="1058" y="220"/>
      <point x="1058" y="182" type="qcurve" smooth="yes"/>
      <point x="1058" y="144"/>
      <point x="1029" y="114"/>
      <point x="995" y="114" type="qcurve" smooth="yes"/>
      <point x="233" y="114" type="line" smooth="yes"/>
      <point x="199" y="114"/>
      <point x="170" y="144"/>
      <point x="170" y="182" type="qcurve" smooth="yes"/>
      <point x="170" y="220"/>
      <point x="199" y="250"/>
      <point x="233" y="250" type="qcurve" smooth="yes"/>
    </contour>
    <contour>
      <point x="832" y="755" type="line"/>
      <point x="219" y="987" type="line" smooth="yes"/>
      <point x="187" y="999"/>
      <point x="164" y="1041"/>
      <point x="179" y="1079" type="qcurve" smooth="yes"/>
      <point x="193" y="1116"/>
      <point x="236" y="1132"/>
      <point x="268" y="1120" type="qcurve" smooth="yes"/>
      <point x="1006" y="830" type="line" smooth="yes"/>
      <point x="1031" y="820"/>
      <point x="1058" y="785"/>
      <point x="1058" y="755" type="qcurve" smooth="yes"/>
      <point x="1058" y="725"/>
      <point x="1031" y="690"/>
      <point x="1006" y="680" type="qcurve" smooth="yes"/>
      <point x="268" y="390" type="line" smooth="yes"/>
      <point x="236" y="378"/>
      <point x="193" y="394"/>
      <point x="179" y="431" type="qcurve" smooth="yes"/>
      <point x="164" y="469"/>
      <point x="187" y="511"/>
      <point x="219" y="523" type="qcurve" smooth="yes"/>
    </contour>
  </outline>
</glyph>
<glyph name="comma.alt" format="2">
  <advance width="1228"/>
  <outline>
    <contour>
      <point x="800" y="-253" type="line" smooth="yes"/>
      <point x="789" y="-274"/>
      <point x="754" y="-294"/>
      <point x="734" y="-294" type="qcurve" smooth="yes"/>
      <point x="720" y="-294"/>
      <point x="696" y="-285"/>
      <point x="687.0" y="-276.5" type="qcurve" smooth="yes" name="inserted"/>
      <point x="678" y="-268"/>
      <point x="671" y="-244"/>
      <point x="674" y="-228" type="qcurve" smooth="yes"/>
      <point x="778" y="254" type="line" smooth="yes"/>
      <point x="782.5" y="274.0" name="inserted"/>
      <point x="808.5" y="294.0"/>
      <point x="830" y="294" type="qcurve" smooth="yes"/>
      <point x="1024" y="294" type="line" smooth="yes"/>
      <point x="1049" y="294"/>
      <point x="1066" y="257"/>
      <point x="1052" y="231" type="qcurve" smooth="yes"/>
    </contour>
  </outline>
</glyph>
<glyph name="ellipsis.alt5" format="2">
  <advance width="3684"/>
  <outline>
    <contour>
      <point x="773" y="147" type="qcurve" smooth="yes"/>
      <point x="773" y="182"/>
      <point x="800" y="243"/>
      <point x="823.0" y="266.0" type="qcurve" smooth="yes" name="inserted"/>
      <point x="846" y="289"/>
      <point x="907" y="316"/>
      <point x="942" y="316" type="qcurve" smooth="yes"/>
      <point x="977" y="316"/>
      <point x="1038" y="289"/>
      <point x="1061.0" y="266.0" type="qcurve" smooth="yes" name="inserted"/>
      <point x="1084" y="243"/>
      <point x="1111" y="182"/>
      <point x="1111" y="147" type="qcurve" smooth="yes"/>
      <point x="1111" y="112"/>
      <point x="1084" y="51"/>
      <point x="1061.0" y="28.0" type="qcurve" smooth="yes" name="inserted"/>
      <point x="1038" y="5"/>
      <point x="977" y="-22"/>
      <point x="942" y="-22" type="qcurve" smooth="yes"/>
      <point x="907" y="-22"/>
      <point x="846" y="5"/>
      <point x="823.0" y="28.0" type="qcurve" smooth="yes" name="inserted"/>
      <point x="800" y="51"/>
      <point x="773" y="112"/>
    </contour>
    <contour>
      <point x="1823" y="147" type="qcurve" smooth="yes"/>
      <point x="1823" y="182"/>
      <point x="1850" y="243"/>
      <point x="1873.0" y="266.0" type="qcurve" smooth="yes" name="inserted"/>
      <point x="1896" y="289"/>
      <point x="1957" y="316"/>
      <point x="1992" y="316" type="qcurve" smooth="yes"/>
      <point x="2027" y="316"/>
      <point x="2088" y="289"/>
      <point x="2111.0" y="266.0" type="qcurve" smooth="yes" name="inserted"/>
      <point x="2134" y="243"/>
      <point x="2161" y="182"/>
      <point x="2161" y="147" type="qcurve" smooth="yes"/>
      <point x="2161" y="112"/>
      <point x="2134" y="51"/>
      <point x="2111.0" y="28.0" type="qcurve" smooth="yes" name="inserted"/>
      <point x="2088" y="5"/>
      <point x="2027" y="-22"/>
      <point x="1992" y="-22" type="qcurve" smooth="yes"/>
      <point x="1957" y="-22"/>
      <point x="1896" y="5"/>
      <point x="1873.0" y="28.0" type="qcurve" smooth="yes" name="inserted"/>
      <point x="1850" y="51"/>
      <point x="1823" y="112"/>
    </contour>
    <contour>
      <point x="2873" y="147" type="qcurve" smooth="yes"/>
      <point x="2873" y="182"/>
      <point x="2900" y="243"/>
      <point x="2923.0" y="266.0" type="qcurve" smooth="yes" name="inserted"/>
      <point x="2946" y="289"/>
      <point x="3007" y="316"/>
      <point x="3042" y="316" type="qcurve" smooth="yes"/>
      <point x="3077" y="316"/>
      <point x="3138" y="289"/>
      <point x="3161.0" y="266.0" type="qcurve" smooth="yes" name="inserted"/>
      <point x="3184" y="243"/>
      <point x="3211" y="182"/>
      <point x="3211" y="147" type="qcurve" smooth="yes"/>
      <point x="3211" y="112"/>
      <point x="3184" y="51"/>
      <point x="3161.0" y="28.0" type="qcurve" smooth="yes" name="inserted"/>
      <point x="3138" y="5"/>
      <point x="3077" y="-22"/>
      <point x="3042" y="-22" type="qcurve" smooth="yes"/>
      <point x="3007" y="-22"/>
      <point x="2946" y="5"/>
      <point x="2923.0" y="28.0" type="qcurve" smooth="yes" name="inserted"/>
      <point x="2900" y="51"/>
      <point x="2873" y="112"/>
    </contour>
  </outline>
</glyph>
